<?xml version="1.0" encoding="utf-8"?>
<!-- Generator: Adobe Illustrator 19.1.1, SVG Export Plug-In . SVG Version: 6.00 Build 0)  -->
<svg version="1.1" xmlns="http://www.w3.org/2000/svg" xmlns:xlink="http://www.w3.org/1999/xlink" x="0px" y="0px"
	 viewBox="0 0 1700 1000" enable-background="new 0 0 1700 1000" xml:space="preserve">
<g id="background">
	<g>
		<rect x="0" y="-0.904" fill="#FFFFFF" width="1700" height="1000"/>
		<g>
			<g>
				<g>
					<g>
						<g>
							<g>
								<path fill="#FFD838" d="M42.799,241.795c-0.219,0-0.427,0.04-0.628,0.096H0v4.719h43.184c0.191,0,0.374-0.029,0.551-0.072
									c16.937,0.5,30.564,14.473,30.564,31.591c0,17.432-14.131,31.615-31.5,31.615c-0.223,0-0.435,0.041-0.639,0.099H0v4.719
									h43.184c0.257,0,0.5-0.052,0.731-0.128c19.446-0.595,35.086-16.646,35.086-36.305
									C79.001,258.095,62.761,241.795,42.799,241.795z"/>
							</g>
							<g>
								<path fill="#FFD838" d="M42.799,228.436c-0.367,0-0.71,0.092-1.02,0.242H0v4.719h43.184c0.342,0,0.664-0.077,0.957-0.208
									c24.089,0.716,43.469,20.593,43.469,44.94c0,24.568-19.732,44.587-44.125,44.957c-0.1-0.013-0.198-0.031-0.301-0.031H0
									v4.719h42.326c0.153,0.031,0.311,0.048,0.473,0.048c27.302,0,49.513-22.293,49.513-49.694S70.101,228.436,42.799,228.436z"
									/>
							</g>
							<g>
								<path fill="#FFD838" d="M42.799,215.077c-0.477,0-0.919,0.144-1.289,0.389H0v4.719h43.184c0.446,0,0.859-0.132,1.214-0.348
									c31.311,0.855,56.524,26.666,56.524,58.292c0,31.752-25.412,57.642-56.895,58.303c-0.263-0.102-0.545-0.163-0.844-0.163H0
									v4.719h41.868c0.286,0.124,0.6,0.195,0.932,0.195c34.642,0,62.825-28.286,62.825-63.053
									C105.625,243.361,77.441,215.077,42.799,215.077z"/>
							</g>
							<g>
								<path fill="#FFD838" d="M44.558,201.761c-0.387-0.281-0.859-0.452-1.374-0.452H0v4.719H41.48
									c0.376,0.257,0.83,0.407,1.32,0.407c39.389,0,71.434,32.162,71.434,71.693c0,39.022-31.23,70.84-69.919,71.655
									c-0.337-0.187-0.718-0.302-1.13-0.302H0v4.719h41.599c0.352,0.212,0.76,0.341,1.201,0.341
									c41.982,0,76.136-34.278,76.136-76.412C118.935,236.586,85.728,202.706,44.558,201.761z"/>
							</g>
							<g>
								<path fill="#FFD838" d="M0,866.169c2.225-7.823,3.417-16.079,3.417-24.609c0-8.53-1.192-16.786-3.417-24.609V866.169z"/>
							</g>
							<g>
								<path fill="#FFD838" d="M44.272,188.376c-0.327-0.173-0.693-0.28-1.088-0.28H0v4.719h41.746
									c0.318,0.161,0.673,0.261,1.054,0.261c46.729,0,84.745,38.154,84.745,85.053c0,46.899-38.017,85.054-84.745,85.054
									c-0.516,0-0.99,0.172-1.378,0.455H0v4.719h43.184c0.529,0,1.012-0.182,1.405-0.478c48.498-0.961,87.657-40.849,87.657-89.75
									C132.247,229.123,92.916,189.169,44.272,188.376z"/>
							</g>
							<g>
								<path fill="#FFD838" d="M0,794.377c7.663,14.017,12.026,30.098,12.026,47.183S7.663,874.726,0,888.744v9.151
									c10.571-16.205,16.728-35.56,16.728-56.334S10.571,801.432,0,785.226V794.377z"/>
							</g>
							<g>
								<path fill="#FFD838" d="M43.917,175.012c-0.232-0.077-0.475-0.129-0.733-0.129H0v4.719h42.113
									c0.219,0.068,0.446,0.114,0.687,0.114c54.069,0,98.056,44.147,98.056,98.412c0,54.265-43.987,98.413-98.056,98.413
									c-0.417,0-0.802,0.118-1.142,0.309H0v4.719h43.184c0.432,0,0.831-0.125,1.178-0.329
									c55.943-0.843,101.195-46.77,101.195-103.112C145.558,221.637,100.065,175.617,43.917,175.012z"/>
							</g>
							<g>
								<path fill="#FFD838" d="M0,770.658c15.825,19.306,25.339,44.009,25.339,70.902c0,26.892-9.514,51.596-25.339,70.902v7.216
									C18.659,899,30.04,871.589,30.04,841.56c0-30.029-11.382-57.439-30.04-78.117V770.658z"/>
							</g>
							<g>
								<path fill="#FFD838" d="M42.799,161.637c-0.112,0-0.22,0.018-0.328,0.033H0v4.719h43.184c0.085,0,0.165-0.016,0.248-0.025
									c61.118,0.344,110.735,50.345,110.735,111.764c0,61.632-49.959,111.772-111.368,111.772c-0.297,0-0.579,0.061-0.841,0.162H0
									v4.719h43.184c0.317,0,0.617-0.065,0.893-0.178c63.414-0.691,114.792-52.67,114.792-116.475
									C158.87,213.895,106.801,161.637,42.799,161.637z"/>
							</g>
							<g>
								<path fill="#FFD838" d="M42.799,148.278c-0.318,0-0.62,0.065-0.897,0.18H0v4.719h43.184c0.299,0,0.583-0.062,0.847-0.164
									c68.182,0.667,123.448,56.532,123.448,125.116c0,68.998-55.931,125.132-124.679,125.132c-0.053,0-0.102,0.012-0.155,0.016H0
									v4.719h43.184c0.08,0,0.155-0.016,0.233-0.024c71.057-0.336,128.763-58.451,128.763-129.843
									C172.181,206.529,114.14,148.278,42.799,148.278z"/>
							</g>
							<g>
								<path fill="#FFD838" d="M0,744.665v6.406c23.8,22.802,38.65,54.938,38.65,90.489c0,35.551-14.849,67.687-38.65,90.489v6.405
									c26.582-23.799,43.351-58.415,43.351-96.894C43.351,803.081,26.582,768.464,0,744.665z"/>
							</g>
							<g>
								<path fill="#FFD838" d="M0,727.384v5.979c31.648,25.399,51.961,64.459,51.961,108.197
									c0,43.738-20.312,82.798-51.961,108.197v5.979c34.399-26.172,56.662-67.611,56.662-114.176
									C56.662,794.996,34.399,753.556,0,727.384z"/>
							</g>
							<g>
								<path fill="#FFD838" d="M42.799,134.919c-0.43,0-0.827,0.124-1.174,0.326H0v4.719h43.184c0.415,0,0.8-0.117,1.138-0.307
									c75.388,0.824,136.467,62.618,136.467,138.472c0,76.001-61.317,137.891-136.907,138.478
									c-0.222-0.07-0.454-0.118-0.699-0.118H0v4.719h42.056c0.235,0.079,0.482,0.132,0.743,0.132
									c78.681,0,142.692-64.244,142.692-143.211C185.492,199.163,121.48,134.919,42.799,134.919z"/>
							</g>
							<g>
								<path fill="#FFD838" d="M44.609,121.583c-0.396-0.305-0.886-0.494-1.425-0.494H0v4.719h41.403
									c0.391,0.292,0.871,0.471,1.397,0.471c83.428,0,151.302,68.12,151.302,151.85c0,83.249-67.097,151.055-149.865,151.833
									c-0.318-0.161-0.672-0.26-1.052-0.26H0v4.719h41.714c0.326,0.172,0.692,0.278,1.086,0.278
									c86.021,0,156.004-70.237,156.004-156.57C198.804,192.403,129.798,122.561,44.609,121.583z"/>
							</g>
							<g>
								<path fill="#FFD838" d="M0,711.018v5.701c39.41,27.44,65.273,73.163,65.273,124.841c0,51.679-25.862,97.402-65.273,124.842
									v5.7c42.135-28.063,69.974-76.097,69.974-130.542C69.974,787.115,42.136,739.081,0,711.018z"/>
							</g>
							<g>
								<path fill="#FFD838" d="M0,695.257v5.506c47.107,29.099,78.584,81.325,78.584,140.797
									c0,59.471-31.477,111.698-78.584,140.797v5.505c49.811-29.615,83.285-84.105,83.285-146.302
									C83.285,779.363,49.811,724.873,0,695.257z"/>
							</g>
							<g>
								<path fill="#FFD838" d="M44.39,108.219c-0.354-0.213-0.763-0.344-1.206-0.344H0v4.719h41.631
									c0.345,0.2,0.741,0.323,1.169,0.323c90.768,0,164.613,74.113,164.613,165.211c0,90.528-72.926,164.269-162.914,165.189
									c-0.375-0.255-0.828-0.403-1.315-0.403H0v4.719h41.458c0.381,0.266,0.842,0.425,1.341,0.425
									c93.361,0,169.315-76.23,169.315-169.93C212.115,184.963,137.02,109.081,44.39,108.219z"/>
							</g>
							<g>
								<path fill="#FFD838" d="M0,997.822v3.082h4.118c55.183-31.57,92.478-91.161,92.478-159.343
									c0-69.866-39.157-130.719-96.596-161.637v5.376c54.75,30.483,91.895,89.096,91.895,156.261
									C91.895,908.726,54.75,967.339,0,997.822z"/>
							</g>
							<g>
								<path fill="#FFD838" d="M44.115,94.857c-0.286-0.124-0.6-0.194-0.93-0.194H0v4.719h41.911
									c0.274,0.113,0.573,0.177,0.888,0.177c98.108,0,177.924,80.106,177.924,178.57c0,98.464-79.817,178.57-177.924,178.57
									c-0.464,0-0.894,0.139-1.258,0.372H0v4.719h43.184c0.48,0,0.926-0.146,1.298-0.394
									c99.927-0.912,180.944-82.767,180.944-183.268C225.426,177.505,144.211,95.57,44.115,94.857z"/>
							</g>
							<g>
								<path fill="#FFD838" d="M105.206,841.56c0,66.304-33.68,124.851-84.765,159.343h8.211
									c49.193-35.758,81.255-93.859,81.255-159.343c0-77.474-44.877-144.618-109.907-176.648v5.27
									C62.353,701.838,105.206,766.767,105.206,841.56z"/>
							</g>
							<g>
								<path fill="#FFD838" d="M43.583,81.491c-0.13-0.023-0.263-0.04-0.399-0.04H0v4.719h42.499
									c0.099,0.013,0.198,0.03,0.301,0.03c105.448,0,191.236,86.099,191.236,191.929c0,105.831-85.788,191.93-191.236,191.93
									c-0.354,0-0.687,0.084-0.988,0.225H0v4.719h43.184c0.367,0,0.711-0.092,1.021-0.243
									c107.395-0.763,194.532-88.67,194.532-196.631C238.737,169.96,151.264,81.917,43.583,81.491z"/>
							</g>
							<g>
								<path fill="#FFD838" d="M118.518,841.56c0,64.241-29.559,121.676-75.74,159.343h7.496c3.997-3.454,7.89-7.063,11.658-10.845
									c39.522-39.665,61.288-92.403,61.288-148.498c0-56.095-21.766-108.832-61.288-148.497
									C43.736,674.801,22.774,660.327,0,650.013v5.327C69.922,688.007,118.518,759.19,118.518,841.56z"/>
							</g>
							<g>
								<path fill="#FFD838" d="M190.761,129.631c-39.522-39.665-92.069-61.51-147.961-61.51c-0.243,0-0.472,0.048-0.693,0.116H0
									v4.719h43.184c0.227,0,0.443-0.043,0.65-0.103c112.313,0.563,203.512,92.427,203.512,205.275
									c0,113.197-91.76,205.29-204.548,205.29c-0.198,0-0.388,0.032-0.571,0.078H0v4.719h43.184c0.213,0,0.415-0.037,0.611-0.091
									c55.52-0.258,107.68-22.069,146.966-61.498c39.522-39.665,61.288-92.403,61.288-148.498
									C252.049,222.033,230.283,169.296,190.761,129.631z"/>
							</g>
							<g>
								<path fill="#FFD838" d="M131.829,841.56c0,62.768-26.498,119.433-68.849,159.343h6.938c0.474-0.468,0.956-0.925,1.427-1.398
									c42.036-42.189,65.186-98.281,65.186-157.945c0-59.663-23.15-115.756-65.186-157.944
									C50.541,662.737,26.341,646.509,0,635.433v5.264C77.466,674.246,131.829,751.647,131.829,841.56z"/>
							</g>
							<g>
								<path fill="#FFD838" d="M200.174,120.184c-42.036-42.189-97.926-65.423-157.374-65.423c-0.383,0-0.739,0.101-1.059,0.264H0
									v4.719h43.184c0.37,0,0.715-0.093,1.026-0.246c119.479,0.766,216.448,98.541,216.448,218.631
									c0,120.265-97.251,218.155-216.971,218.638c-0.162-0.036-0.33-0.057-0.503-0.057H0v4.719h42.261
									c0.174,0.041,0.353,0.068,0.539,0.068c59.448,0,115.338-23.234,157.374-65.422c42.036-42.189,65.186-98.281,65.186-157.945
									C265.36,218.466,242.21,162.373,200.174,120.184z"/>
							</g>
							<g>
								<path fill="#FFD838" d="M209.586,110.737C165.035,66.025,105.803,41.402,42.799,41.402c-0.491,0-0.946,0.152-1.323,0.41H0
									v4.719h43.184c0.476,0,0.918-0.144,1.289-0.389C171.171,47.05,273.969,150.76,273.969,278.129
									c0,127.486-102.986,231.273-229.845,231.992c-0.288-0.126-0.605-0.199-0.94-0.199H0v4.719h41.829
									c0.297,0.136,0.624,0.216,0.971,0.216c63.003,0,122.236-24.624,166.786-69.336c44.55-44.712,69.085-104.16,69.085-167.392
									C278.671,214.897,254.136,155.45,209.586,110.737z"/>
							</g>
							<g>
								<path fill="#FFD838" d="M145.14,841.56c0,61.652-24.094,117.753-63.318,159.343h6.584
									c39.697-43.677,61.435-99.832,61.435-159.343c0-63.232-24.535-122.679-69.085-167.391
									C57.361,650.689,29.913,632.759,0,621.015v5.21C84.986,660.548,145.14,744.131,145.14,841.56z"/>
							</g>
							<g>
								<path fill="#FFD838" d="M158.451,841.56c0,60.77-22.131,116.444-58.725,159.343h6.315
									c36.979-44.737,57.111-100.485,57.111-159.343c0-66.8-25.92-129.603-72.983-176.837
									C64.193,638.653,33.487,619.063,0,606.728v5.164C92.486,646.902,158.451,736.638,158.451,841.56z"/>
							</g>
							<g>
								<path fill="#FFD838" d="M218.998,101.291C172.336,54.46,110.426,28.504,44.505,28.063c-0.376-0.257-0.831-0.408-1.321-0.408
									H0v4.719h41.514c0.37,0.243,0.81,0.387,1.286,0.387c134.807,0,244.481,110.071,244.481,245.368
									c0,134.764-108.815,244.487-242.893,245.348c-0.353-0.212-0.761-0.342-1.203-0.342H0v4.719h41.56
									c0.361,0.226,0.783,0.362,1.24,0.362c66.559,0,129.134-26.014,176.199-73.249c47.064-47.235,72.984-110.037,72.984-176.838
									C291.982,211.328,266.062,148.526,218.998,101.291z"/>
							</g>
						</g>
					</g>
					<g>
						<g>
							<g>
								<path fill="#FFD838" d="M639.921,241.795c-0.219,0-0.427,0.04-0.628,0.096H0v4.719h640.306c0.191,0,0.374-0.029,0.551-0.072
									c16.937,0.5,30.564,14.473,30.564,31.591c0,17.432-14.131,31.615-31.5,31.615c-0.223,0-0.435,0.041-0.639,0.099H511.639
									c-0.176-0.043-0.358-0.071-0.548-0.071c-66.559,0-129.135,26.014-176.199,73.249
									c-47.065,47.235-72.984,110.038-72.984,176.838c0,66.8,25.92,129.603,72.984,176.837
									c47.064,47.236,109.64,73.249,176.199,73.249c17.369,0,31.5,14.182,31.5,31.615c0,17.432-14.131,31.614-31.5,31.614H66.393
									c-22.75,0-45.034,3.043-66.392,8.93v4.987c21.12-5.988,43.389-9.199,66.392-9.199h444.774c0.009,0,0.017-0.002,0.025-0.003
									c19.915-0.055,36.101-16.331,36.101-36.331c0-20.034-16.24-36.333-36.202-36.333
									c-134.807,0-244.482-110.071-244.482-245.368c0-135.244,109.589-245.281,244.325-245.367
									c0.175,0.041,0.354,0.069,0.542,0.069h128.829c0.257,0,0.499-0.052,0.731-0.128c19.446-0.595,35.086-16.646,35.086-36.305
									C676.123,258.095,659.882,241.795,639.921,241.795z"/>
							</g>
							<g>
								<path fill="#FFD838" d="M639.921,228.436c-0.367,0-0.71,0.092-1.02,0.242H0v4.719h640.306c0.342,0,0.664-0.077,0.957-0.208
									c24.089,0.716,43.469,20.593,43.469,44.94c0,24.568-19.732,44.587-44.125,44.957c-0.1-0.013-0.198-0.031-0.301-0.031
									H511.476c-0.198,0-0.386,0.032-0.57,0.078c-62.934,0.048-122.094,24.665-166.601,69.334
									c-44.55,44.712-69.085,104.16-69.085,167.392c0,63.232,24.535,122.679,69.085,167.391
									c44.551,44.712,103.783,69.336,166.786,69.336c24.709,0,44.811,20.175,44.811,44.974s-20.102,44.974-44.811,44.974H66.393
									c-22.799,0-45.098,3.241-66.392,9.475v5.012c21.039-6.343,43.323-9.768,66.392-9.768h444.774
									c0.009,0,0.017-0.002,0.025-0.003c27.255-0.055,49.412-22.324,49.412-49.691c0-27.401-22.211-49.693-49.513-49.693
									c-127.467,0-231.17-104.078-231.17-232.008S383.624,327.85,511.092,327.85c0.195,0,0.381-0.031,0.562-0.076h127.794
									c0.153,0.031,0.311,0.048,0.473,0.048c27.302,0,49.513-22.293,49.513-49.694S667.223,228.436,639.921,228.436z"/>
							</g>
							<g>
								<path fill="#FFD838" d="M639.921,215.077c-0.477,0-0.919,0.144-1.289,0.389H0v4.719h640.306
									c0.446,0,0.859-0.132,1.214-0.348c31.311,0.855,56.524,26.666,56.524,58.292c0,31.752-25.412,57.642-56.895,58.303
									c-0.263-0.102-0.546-0.163-0.844-0.163H511.476c-0.358,0-0.694,0.087-0.998,0.23c-59.219,0.16-114.87,23.372-156.761,65.415
									c-42.036,42.189-65.186,98.281-65.186,157.945c0,59.663,23.15,115.756,65.186,157.944
									c42.036,42.189,97.926,65.423,157.374,65.423c32.049,0,58.123,26.168,58.123,58.333c0,32.166-26.074,58.334-58.123,58.334
									H66.393c-22.853,0-45.176,3.447-66.392,10.071v5.043c20.942-6.741,43.249-10.395,66.392-10.395h444.774
									c0.009,0,0.017-0.002,0.025-0.003c34.595-0.055,62.724-28.317,62.724-63.05c0-34.768-28.183-63.052-62.825-63.052
									c-120.127,0-217.859-98.086-217.859-218.649c0-120.563,97.731-218.649,217.859-218.649c0.353,0,0.684-0.083,0.984-0.223
									h126.913c0.286,0.124,0.6,0.195,0.932,0.195c34.642,0,62.825-28.286,62.825-63.053
									C702.746,243.361,674.563,215.077,639.921,215.077z"/>
							</g>
							<g>
								<path fill="#FFD838" d="M641.68,201.761c-0.387-0.281-0.859-0.452-1.374-0.452H0v4.719h638.601
									c0.376,0.257,0.83,0.407,1.32,0.407c39.389,0,71.434,32.162,71.434,71.693c0,39.022-31.23,70.84-69.919,71.655
									c-0.337-0.187-0.718-0.302-1.13-0.302H511.476c-0.47,0-0.906,0.142-1.273,0.38c-55.56,0.231-107.761,22.045-147.073,61.499
									c-39.522,39.665-61.288,92.403-61.288,148.498c0,56.095,21.766,108.832,61.288,148.497
									c39.522,39.665,92.069,61.51,147.961,61.51c39.389,0,71.434,32.162,71.434,71.693c0,39.532-32.046,71.694-71.434,71.694
									H66.393C43.476,913.254,21.124,916.933,0,924v5.081c20.828-7.193,43.162-11.108,66.392-11.108h444.774
									c0.009,0,0.017-0.002,0.025-0.003c41.936-0.055,76.035-34.31,76.035-76.41c0-42.134-34.154-76.412-76.136-76.412
									c-112.788,0-204.547-92.092-204.547-205.289c0-113.197,91.759-205.29,204.547-205.29c0.462,0,0.89-0.139,1.253-0.37H638.72
									c0.353,0.212,0.76,0.341,1.201,0.341c41.982,0,76.136-34.278,76.136-76.412C716.057,236.586,682.85,202.706,641.68,201.761z
									"/>
							</g>
							<g>
								<path fill="#FFD838" d="M641.394,188.376c-0.327-0.173-0.693-0.28-1.088-0.28H0v4.719h638.867
									c0.318,0.161,0.673,0.261,1.054,0.261c46.729,0,84.745,38.154,84.745,85.053c0,46.899-38.017,85.054-84.745,85.054
									c-0.516,0-0.99,0.172-1.378,0.455H512.436c-0.381-0.268-0.843-0.428-1.344-0.428c-108.04,0-195.938,88.217-195.938,196.649
									s87.898,196.648,195.938,196.648c46.729,0,84.745,38.155,84.745,85.053c0,46.899-38.017,85.053-84.745,85.053H66.393
									c-23.295,0-45.649,4.11-66.392,11.63v5.024c20.692-7.713,43.059-11.935,66.392-11.935h444.774
									c0.004,0,0.007-0.001,0.011-0.001c49.282-0.047,89.361-40.299,89.361-89.771c0-49.5-40.126-89.772-89.447-89.772
									c-105.448,0-191.236-86.099-191.236-191.929c0-105.514,85.277-191.404,190.291-191.918c0.378,0.261,0.836,0.416,1.33,0.416
									h128.829c0.529,0,1.012-0.182,1.405-0.478c48.498-0.961,87.657-40.849,87.657-89.75
									C729.368,229.123,690.038,189.169,641.394,188.376z"/>
							</g>
							<g>
								<path fill="#FFD838" d="M641.038,175.012c-0.232-0.077-0.475-0.129-0.733-0.129H0v4.719h639.234
									c0.219,0.068,0.446,0.114,0.687,0.114c54.069,0,98.056,44.147,98.056,98.412c0,54.265-43.987,98.413-98.056,98.413
									c-0.417,0-0.802,0.118-1.142,0.309H512.182c-0.327-0.174-0.695-0.281-1.091-0.281c-100.7,0-182.626,82.223-182.626,183.29
									c0,101.065,81.926,183.289,182.626,183.289c54.069,0,98.056,44.147,98.056,98.412s-43.988,98.413-98.056,98.413H66.393
									c-23.411,0-45.804,4.449-66.392,12.541v5.084c20.526-8.316,42.934-12.906,66.392-12.906h444.774
									c0.004,0,0.007-0.001,0.011-0.001C567.8,944.644,613.85,898.399,613.85,841.56c0-56.867-46.097-103.131-102.758-103.131
									c-98.108,0-177.924-80.106-177.924-178.57c0-98.233,79.443-178.187,177.234-178.562c0.323,0.168,0.685,0.272,1.075,0.272
									h128.829c0.432,0,0.831-0.125,1.178-0.329c55.943-0.843,101.195-46.77,101.195-103.112
									C742.679,221.637,697.186,175.617,641.038,175.012z"/>
							</g>
							<g>
								<path fill="#FFD838" d="M639.921,161.637c-0.112,0-0.22,0.018-0.328,0.033H0v4.719h640.306c0.085,0,0.165-0.016,0.248-0.025
									c61.118,0.344,110.735,50.345,110.735,111.764c0,61.632-49.959,111.772-111.368,111.772c-0.297,0-0.579,0.061-0.841,0.162
									H511.841c-0.237-0.08-0.485-0.134-0.749-0.134c-93.361,0-169.315,76.23-169.315,169.93
									c0,93.699,75.954,169.929,169.315,169.929c61.409,0,111.368,50.141,111.368,111.772
									c0,61.631-49.959,111.772-111.368,111.772H66.393c-23.553,0-45.995,4.857-66.392,13.617v5.152
									c20.319-9.025,42.781-14.05,66.392-14.05h444.774c0.004,0,0.007-0.001,0.011-0.001
									c63.962-0.047,115.984-52.285,115.984-116.49c0-64.234-52.069-116.491-116.07-116.491
									c-90.769,0-164.613-74.113-164.613-165.21c0-90.981,73.656-165.016,164.264-165.206c0.232,0.077,0.476,0.129,0.735,0.129
									h128.829c0.317,0,0.617-0.065,0.893-0.178c63.414-0.691,114.792-52.67,114.792-116.475
									C755.991,213.895,703.922,161.637,639.921,161.637z"/>
							</g>
							<g>
								<path fill="#FFD838" d="M639.921,148.278c-0.318,0-0.62,0.065-0.897,0.18H0v4.719h640.306c0.299,0,0.583-0.062,0.847-0.164
									c68.182,0.667,123.448,56.532,123.448,125.116c0,68.998-55.931,125.132-124.679,125.132c-0.053,0-0.102,0.012-0.155,0.016
									h-128.29c-0.088,0-0.171,0.016-0.256,0.026c-0.043-0.002-0.084-0.013-0.128-0.013c-86.021,0-156.004,70.237-156.004,156.57
									c0,86.333,69.983,156.569,156.004,156.569c68.748,0,124.679,56.134,124.679,125.132
									c0,68.998-55.931,125.132-124.679,125.132H66.393c-23.731,0-46.236,5.354-66.392,14.908v5.234
									c20.056-9.871,42.589-15.424,66.392-15.424h444.774c0.004,0,0.007-0.001,0.011-0.001
									c71.301-0.047,129.295-58.279,129.295-129.85c0-71.599-58.041-129.851-129.381-129.851
									c-83.428,0-151.302-68.12-151.302-151.85c0-83.731,67.874-151.852,151.302-151.852c0.088,0,0.171-0.016,0.256-0.026
									c0.044,0.002,0.085,0.013,0.129,0.013h128.829c0.08,0,0.155-0.016,0.233-0.024c71.057-0.336,128.763-58.451,128.763-129.843
									C769.302,206.529,711.262,148.278,639.921,148.278z"/>
							</g>
							<g>
								<path fill="#FFD838" d="M511.092,980.052H66.393c-23.957,0-46.548,5.965-66.392,16.479v4.373h1.846
									c19.274-10.283,41.239-16.133,64.547-16.133h444.774c0.004,0,0.007-0.001,0.011-0.001
									c78.641-0.047,142.606-64.272,142.606-143.209c0-78.966-64.011-143.21-142.692-143.21
									c-76.088,0-137.99-62.127-137.99-138.491c0-76.365,61.902-138.492,137.99-138.492c0.294,0,0.572-0.061,0.832-0.16h127.255
									c0.235,0.079,0.482,0.132,0.743,0.132c78.681,0,142.692-64.244,142.692-143.211c0-78.966-64.011-143.21-142.692-143.21
									c-0.43,0-0.827,0.124-1.174,0.326H0v4.719h640.306c0.415,0,0.8-0.117,1.138-0.307
									c75.388,0.824,136.468,62.618,136.468,138.472c0,76.001-61.317,137.891-136.907,138.478
									c-0.222-0.07-0.454-0.118-0.699-0.118H511.476c-0.301,0-0.586,0.062-0.851,0.165
									c-78.467,0.254-142.226,64.394-142.226,143.205c0,78.966,64.011,143.21,142.692,143.21
									c76.088,0,137.991,62.127,137.991,138.491S587.18,980.052,511.092,980.052z"/>
							</g>
							<g>
								<path fill="#FFD838" d="M639.921,126.278c83.428,0,151.302,68.12,151.302,151.85c0,83.249-67.097,151.055-149.865,151.833
									c-0.318-0.161-0.672-0.26-1.052-0.26H511.476c-0.422,0-0.812,0.12-1.155,0.316c-70.987,0.418-128.611,58.5-128.611,129.842
									c0,71.599,58.041,129.851,129.381,129.851c83.428,0,151.302,68.12,151.302,151.85c0,83.731-67.874,151.851-151.302,151.851
									H66.393c-15.188,0-29.771,2.644-43.32,7.492h17.2c8.426-1.811,17.163-2.773,26.121-2.773h444.774
									c0.004,0,0.007-0.001,0.011-0.001c85.981-0.047,155.918-70.265,155.918-156.569c0-86.333-69.983-156.569-156.004-156.569
									c-68.748,0-124.679-56.134-124.679-125.132c0-68.999,55.931-125.133,124.679-125.133c0.415,0,0.798-0.117,1.137-0.306
									h126.607c0.326,0.172,0.692,0.278,1.086,0.278c86.021,0,156.004-70.237,156.004-156.57
									c0-85.726-69.006-155.568-154.195-156.546c-0.396-0.305-0.886-0.494-1.424-0.494H0v4.719h638.524
									C638.916,126.1,639.396,126.278,639.921,126.278z"/>
							</g>
							<g>
								<path fill="#FFD838" d="M639.921,112.918c90.769,0,164.613,74.113,164.613,165.211c0,90.528-72.926,164.269-162.914,165.189
									c-0.375-0.255-0.828-0.403-1.315-0.403H511.476c-0.523,0-1.001,0.177-1.391,0.466
									c-63.539,0.545-115.064,52.583-115.064,116.479c0,64.233,52.069,116.49,116.07,116.49
									c90.769,0,164.613,74.113,164.613,165.211c0,75.988-51.384,140.147-121.109,159.343h15.325
									c64.446-24.044,110.485-86.396,110.485-159.343c0-93.7-75.954-169.93-169.315-169.93
									c-61.409,0-111.368-50.141-111.368-111.771c0-61.632,49.959-111.772,111.368-111.772c0.515,0,0.988-0.171,1.376-0.453
									H638.58c0.381,0.266,0.842,0.425,1.341,0.425c93.361,0,169.315-76.23,169.315-169.93
									c0-93.166-75.094-169.048-167.725-169.909c-0.354-0.213-0.763-0.344-1.206-0.344H0v4.719h638.752
									C639.098,112.795,639.493,112.918,639.921,112.918z"/>
							</g>
							<g>
								<path fill="#FFD838" d="M639.921,99.559c98.108,0,177.924,80.106,177.924,178.57c0,98.464-79.817,178.57-177.924,178.57
									c-0.464,0-0.894,0.139-1.258,0.372H512.297c-0.354-0.214-0.763-0.344-1.206-0.344c-56.661,0-102.759,46.265-102.759,103.132
									c0,56.867,46.098,103.131,102.759,103.131c98.108,0,177.925,80.106,177.925,178.57c0,69.502-39.772,129.851-97.669,159.343
									h9.91c55.176-31.572,92.461-91.167,92.461-159.343c0-101.066-81.926-183.289-182.626-183.289
									c-54.069,0-98.057-44.147-98.057-98.412c0-53.996,43.555-97.968,97.255-98.403c0.35,0.207,0.752,0.334,1.187,0.334h128.829
									c0.48,0,0.926-0.146,1.298-0.394c99.927-0.912,180.944-82.767,180.944-183.268c0-100.624-81.215-182.558-181.311-183.272
									c-0.286-0.124-0.6-0.194-0.93-0.194H0v4.719h639.033C639.307,99.494,639.606,99.559,639.921,99.559z"/>
							</g>
							<g>
								<path fill="#FFD838" d="M639.921,86.199c105.448,0,191.236,86.099,191.236,191.929c0,105.831-85.788,191.93-191.236,191.93
									c-0.354,0-0.686,0.084-0.988,0.225H512.029c-0.287-0.126-0.603-0.197-0.937-0.197c-49.321,0-89.447,40.272-89.447,89.773
									c0,49.5,40.126,89.772,89.447,89.772c105.448,0,191.236,86.099,191.236,191.929c0,66.298-33.67,124.849-84.746,159.343
									h8.193c49.191-35.76,81.255-93.86,81.255-159.343c0-108.432-87.897-196.648-195.937-196.648
									c-46.729,0-84.745-38.154-84.745-85.053c0-46.718,37.725-84.754,84.206-85.047c0.284,0.122,0.596,0.19,0.924,0.19h128.829
									c0.367,0,0.711-0.092,1.021-0.243c107.395-0.763,194.532-88.67,194.532-196.631c0-108.169-87.473-196.212-195.153-196.638
									c-0.13-0.023-0.263-0.04-0.399-0.04H0v4.719h639.62C639.72,86.182,639.818,86.199,639.921,86.199z"/>
							</g>
							<g>
								<path fill="#FFD838" d="M640.956,72.853c112.313,0.563,203.512,92.427,203.512,205.275
									c0,113.197-91.76,205.29-204.548,205.29c-0.198,0-0.387,0.032-0.571,0.078H511.571c-0.155-0.032-0.315-0.05-0.48-0.05
									c-41.982,0-76.136,34.278-76.136,76.412c0,42.134,34.154,76.412,76.136,76.412c112.788,0,204.548,92.092,204.548,205.289
									c0,64.239-29.56,121.672-75.736,159.343h7.507c3.993-3.452,7.878-7.066,11.643-10.845
									c39.522-39.665,61.288-92.403,61.288-148.498c0-56.095-21.766-108.832-61.288-148.497s-92.069-61.51-147.962-61.51
									c-39.389,0-71.434-32.162-71.434-71.693c0-39.503,32-71.645,71.349-71.691c0.152,0.031,0.309,0.048,0.47,0.048h128.829
									c0.213,0,0.415-0.037,0.611-0.091c55.52-0.258,107.679-22.069,146.966-61.498c39.522-39.665,61.288-92.403,61.288-148.498
									c0-56.095-21.766-108.832-61.288-148.497c-39.522-39.665-92.069-61.51-147.961-61.51c-0.243,0-0.472,0.048-0.693,0.116H0
									v4.719h640.306C640.533,72.956,640.748,72.914,640.956,72.853z"/>
							</g>
							<g>
								<path fill="#FFD838" d="M641.331,59.498c119.479,0.766,216.448,98.541,216.448,218.631
									c0,120.265-97.251,218.155-216.971,218.638c-0.162-0.036-0.33-0.057-0.503-0.057H511.476c-0.228,0-0.444,0.043-0.653,0.104
									c-34.518,0.146-62.557,28.369-62.557,63.046c0,34.767,28.183,63.052,62.825,63.052
									c120.127,0,217.859,98.086,217.859,218.649c0,62.766-26.497,119.43-68.844,159.343h6.932
									c0.474-0.468,0.956-0.925,1.427-1.398c42.036-42.189,65.186-98.281,65.186-157.945c0-59.663-23.15-115.756-65.186-157.944
									c-42.036-42.189-97.926-65.423-157.374-65.423c-32.049,0-58.123-26.169-58.123-58.333c0-32.166,26.074-58.334,58.123-58.334
									c0.22,0,0.429-0.04,0.631-0.097h127.66c0.174,0.041,0.353,0.068,0.539,0.068c59.448,0,115.338-23.234,157.374-65.422
									c42.036-42.189,65.186-98.281,65.186-157.945c0-59.663-23.15-115.756-65.186-157.944
									c-42.036-42.189-97.926-65.423-157.374-65.423c-0.383,0-0.739,0.101-1.059,0.264H0v4.719h640.306
									C640.675,59.743,641.02,59.65,641.331,59.498z"/>
							</g>
							<g>
								<path fill="#FFD838" d="M641.594,46.142C768.293,47.05,871.09,150.76,871.09,278.129
									c0,127.486-102.986,231.273-229.845,231.992c-0.288-0.126-0.605-0.199-0.94-0.199H511.476c-0.381,0-0.735,0.099-1.053,0.26
									c-26.994,0.362-48.846,22.501-48.846,49.677c0,27.401,22.212,49.693,49.514,49.693c127.467,0,231.17,104.079,231.17,232.008
									c0,61.647-24.087,117.75-63.305,159.343h6.571c39.697-43.677,61.435-99.832,61.435-159.343
									c0-63.232-24.535-122.679-69.085-167.391c-44.55-44.712-103.783-69.336-166.786-69.336
									c-24.709,0-44.812-20.175-44.812-44.974c0-24.799,20.103-44.975,44.812-44.975c0.368,0,0.712-0.092,1.022-0.243H638.95
									c0.297,0.136,0.624,0.216,0.971,0.216c63.003,0,122.236-24.624,166.786-69.336c44.55-44.712,69.085-104.16,69.085-167.392
									c0-63.232-24.535-122.679-69.085-167.391c-44.551-44.712-103.783-69.336-166.786-69.336c-0.491,0-0.946,0.152-1.323,0.41H0
									v4.719h640.306C640.782,46.531,641.224,46.386,641.594,46.142z"/>
							</g>
							<g>
								<path fill="#FFD838" d="M639.921,32.761c134.808,0,244.481,110.071,244.481,245.368
									c0,134.764-108.815,244.487-242.893,245.348c-0.353-0.212-0.761-0.342-1.203-0.342H511.476c-0.493,0-0.95,0.153-1.328,0.414
									c-19.526,0.505-35.259,16.593-35.259,36.31c0,20.034,16.24,36.333,36.202,36.333c134.808,0,244.481,110.071,244.481,245.368
									c0,60.769-22.135,116.44-58.726,159.343h6.316c36.979-44.737,57.111-100.485,57.111-159.343
									c0-66.8-25.92-129.603-72.983-176.837c-47.065-47.236-109.64-73.249-176.199-73.249c-17.369,0-31.5-14.182-31.5-31.614
									c0-17.433,14.131-31.616,31.5-31.616c0.477,0,0.92-0.145,1.291-0.39h126.299c0.361,0.226,0.783,0.362,1.24,0.362
									c66.559,0,129.134-26.014,176.199-73.249c47.064-47.235,72.984-110.037,72.984-176.838c0-66.8-25.92-129.603-72.984-176.837
									C769.458,54.46,707.547,28.504,641.626,28.063c-0.376-0.257-0.831-0.408-1.321-0.408H0v4.719h638.635
									C639.005,32.617,639.446,32.761,639.921,32.761z"/>
							</g>
						</g>
					</g>
					<g>
						<g>
							<g>
								<path fill="#E58DFF" d="M414.572,241.795c-0.219,0-0.427,0.04-0.628,0.096H0v4.719h414.957c0.191,0,0.374-0.029,0.551-0.072
									c16.937,0.5,30.564,14.473,30.564,31.591c0,17.432-14.131,31.615-31.5,31.615c-0.223,0-0.435,0.041-0.639,0.099H286.29
									c-0.177-0.043-0.358-0.071-0.548-0.071c-66.559,0-129.135,26.014-176.199,73.249
									c-47.065,47.235-72.984,110.038-72.984,176.838c0,66.8,25.92,129.603,72.984,176.837
									c47.064,47.236,109.64,73.249,176.199,73.249c17.369,0,31.5,14.182,31.5,31.615c0,17.432-14.131,31.614-31.5,31.614H0v4.719
									h285.818c0.009,0,0.017-0.002,0.025-0.003c19.915-0.055,36.101-16.331,36.101-36.331c0-20.034-16.241-36.333-36.202-36.333
									c-134.808,0-244.482-110.071-244.482-245.368c0-135.244,109.589-245.281,244.325-245.367
									c0.174,0.041,0.354,0.069,0.541,0.069h128.829c0.257,0,0.499-0.052,0.731-0.128c19.446-0.595,35.086-16.646,35.086-36.305
									C450.774,258.095,434.533,241.795,414.572,241.795z"/>
							</g>
							<g>
								<path fill="#E58DFF" d="M414.572,228.436c-0.367,0-0.71,0.092-1.02,0.242H0v4.719h414.957c0.342,0,0.664-0.077,0.957-0.208
									c24.089,0.716,43.469,20.593,43.469,44.94c0,24.568-19.732,44.587-44.125,44.957c-0.1-0.013-0.198-0.031-0.301-0.031
									H286.127c-0.198,0-0.386,0.032-0.57,0.078c-62.934,0.048-122.094,24.665-166.601,69.334
									c-44.55,44.712-69.085,104.16-69.085,167.392c0,63.232,24.535,122.679,69.085,167.391
									c44.55,44.712,103.783,69.336,166.786,69.336c24.709,0,44.811,20.175,44.811,44.974s-20.102,44.974-44.811,44.974H0v4.719
									h285.818c0.009,0,0.017-0.002,0.025-0.003c27.255-0.055,49.412-22.324,49.412-49.691c0-27.401-22.211-49.693-49.513-49.693
									c-127.467,0-231.17-104.078-231.17-232.008S158.275,327.85,285.743,327.85c0.195,0,0.381-0.031,0.562-0.076h127.794
									c0.153,0.031,0.311,0.048,0.473,0.048c27.302,0,49.513-22.293,49.513-49.694S441.873,228.436,414.572,228.436z"/>
							</g>
							<g>
								<path fill="#E58DFF" d="M414.572,215.077c-0.477,0-0.919,0.144-1.289,0.389H0v4.719h414.957
									c0.446,0,0.859-0.132,1.214-0.348c31.311,0.855,56.524,26.666,56.524,58.292c0,31.752-25.412,57.642-56.895,58.303
									c-0.263-0.102-0.546-0.163-0.844-0.163H286.127c-0.358,0-0.694,0.087-0.998,0.23c-59.219,0.16-114.87,23.372-156.761,65.415
									c-42.036,42.189-65.186,98.281-65.186,157.945c0,59.663,23.15,115.756,65.186,157.944
									c42.036,42.189,97.926,65.423,157.374,65.423c32.049,0,58.123,26.168,58.123,58.333c0,32.166-26.074,58.334-58.123,58.334H0
									v4.719h285.818c0.009,0,0.017-0.002,0.025-0.003c34.595-0.055,62.724-28.317,62.724-63.05
									c0-34.768-28.183-63.052-62.825-63.052c-120.127,0-217.859-98.086-217.859-218.649
									c0-120.563,97.731-218.649,217.859-218.649c0.353,0,0.684-0.083,0.984-0.223H413.64c0.286,0.124,0.6,0.195,0.932,0.195
									c34.642,0,62.825-28.286,62.825-63.053C477.397,243.361,449.214,215.077,414.572,215.077z"/>
							</g>
							<g>
								<path fill="#E58DFF" d="M416.331,201.761c-0.387-0.281-0.859-0.452-1.374-0.452H0v4.719h413.252
									c0.376,0.257,0.83,0.407,1.32,0.407c39.389,0,71.434,32.162,71.434,71.693c0,39.022-31.23,70.84-69.919,71.655
									c-0.337-0.187-0.718-0.302-1.13-0.302H286.127c-0.47,0-0.906,0.142-1.273,0.38c-55.56,0.231-107.761,22.045-147.073,61.499
									c-39.522,39.665-61.288,92.403-61.288,148.498c0,56.095,21.766,108.832,61.288,148.497
									c39.522,39.665,92.069,61.51,147.962,61.51c39.389,0,71.434,32.162,71.434,71.693c0,39.532-32.046,71.694-71.434,71.694H0
									v4.719h285.818c0.009,0,0.017-0.002,0.025-0.003c41.936-0.055,76.035-34.31,76.035-76.41
									c0-42.134-34.154-76.412-76.136-76.412c-112.788,0-204.548-92.092-204.548-205.289c0-113.197,91.76-205.29,204.548-205.29
									c0.462,0,0.89-0.139,1.253-0.37h126.375c0.352,0.212,0.76,0.341,1.201,0.341c41.982,0,76.136-34.278,76.136-76.412
									C490.708,236.586,457.501,202.706,416.331,201.761z"/>
							</g>
							<g>
								<path fill="#E58DFF" d="M416.045,188.376c-0.327-0.173-0.693-0.28-1.088-0.28H0v4.719h413.518
									c0.318,0.161,0.673,0.261,1.054,0.261c46.729,0,84.745,38.154,84.745,85.053c0,46.899-38.017,85.054-84.745,85.054
									c-0.516,0-0.99,0.172-1.378,0.455H287.087c-0.381-0.268-0.843-0.428-1.344-0.428c-108.04,0-195.938,88.217-195.938,196.649
									s87.898,196.648,195.938,196.648c46.729,0,84.745,38.155,84.745,85.053c0,46.899-38.017,85.053-84.745,85.053H0v4.719
									h285.818c0.004,0,0.007-0.001,0.011-0.001c49.282-0.047,89.361-40.299,89.361-89.771c0-49.5-40.126-89.772-89.447-89.772
									c-105.448,0-191.236-86.099-191.236-191.929c0-105.514,85.277-191.404,190.291-191.918c0.378,0.261,0.836,0.416,1.33,0.416
									h128.829c0.529,0,1.012-0.182,1.405-0.478c48.498-0.961,87.657-40.849,87.657-89.75
									C504.019,229.123,464.689,189.169,416.045,188.376z"/>
							</g>
							<g>
								<path fill="#E58DFF" d="M415.689,175.012c-0.232-0.077-0.475-0.129-0.733-0.129H0v4.719h413.885
									c0.219,0.068,0.446,0.114,0.687,0.114c54.069,0,98.056,44.147,98.056,98.412c0,54.265-43.987,98.413-98.056,98.413
									c-0.417,0-0.802,0.118-1.142,0.309H286.833c-0.327-0.174-0.695-0.281-1.091-0.281c-100.7,0-182.626,82.223-182.626,183.29
									c0,101.065,81.926,183.289,182.626,183.289c54.069,0,98.056,44.147,98.056,98.412s-43.987,98.413-98.056,98.413H0v4.719
									h285.818c0.004,0,0.007-0.001,0.011-0.001c56.622-0.047,102.672-46.292,102.672-103.131
									c0-56.867-46.097-103.131-102.758-103.131c-98.108,0-177.924-80.106-177.924-178.57
									c0-98.233,79.444-178.187,177.235-178.562c0.323,0.168,0.685,0.272,1.075,0.272h128.829c0.432,0,0.831-0.125,1.178-0.329
									c55.943-0.843,101.195-46.77,101.195-103.112C517.33,221.637,471.837,175.617,415.689,175.012z"/>
							</g>
							<g>
								<path fill="#E58DFF" d="M414.572,161.637c-0.112,0-0.22,0.018-0.328,0.033H0v4.719h414.957c0.085,0,0.165-0.016,0.248-0.025
									c61.118,0.344,110.736,50.345,110.736,111.764c0,61.632-49.959,111.772-111.368,111.772c-0.297,0-0.579,0.061-0.841,0.162
									H286.492c-0.237-0.08-0.486-0.134-0.749-0.134c-93.361,0-169.315,76.23-169.315,169.93
									c0,93.699,75.954,169.929,169.315,169.929c61.409,0,111.368,50.141,111.368,111.772
									c0,61.631-49.959,111.772-111.368,111.772H0v4.719h285.818c0.004,0,0.007-0.001,0.011-0.001
									c63.962-0.047,115.984-52.285,115.984-116.49c0-64.234-52.069-116.491-116.07-116.491
									c-90.769,0-164.613-74.113-164.613-165.21c0-90.981,73.656-165.016,164.264-165.206c0.232,0.077,0.476,0.129,0.735,0.129
									h128.829c0.317,0,0.617-0.065,0.893-0.178c63.414-0.691,114.792-52.67,114.792-116.475
									C530.642,213.895,478.573,161.637,414.572,161.637z"/>
							</g>
							<g>
								<path fill="#E58DFF" d="M414.572,148.278c-0.318,0-0.62,0.065-0.897,0.18H0v4.719h414.957c0.299,0,0.583-0.062,0.847-0.164
									c68.182,0.667,123.448,56.532,123.448,125.116c0,68.998-55.931,125.132-124.679,125.132c-0.053,0-0.103,0.012-0.155,0.016
									h-128.29c-0.088,0-0.171,0.016-0.256,0.026c-0.043-0.002-0.085-0.013-0.128-0.013c-86.021,0-156.004,70.237-156.004,156.57
									c0,86.333,69.983,156.569,156.004,156.569c68.748,0,124.679,56.134,124.679,125.132
									c0,68.998-55.931,125.132-124.679,125.132H0v4.719h285.818c0.004,0,0.007-0.001,0.011-0.001
									c71.301-0.047,129.295-58.279,129.295-129.85c0-71.599-58.041-129.851-129.381-129.851
									c-83.428,0-151.302-68.12-151.302-151.85c0-83.731,67.874-151.852,151.302-151.852c0.088,0,0.171-0.016,0.256-0.026
									c0.043,0.002,0.085,0.013,0.129,0.013h128.829c0.08,0,0.155-0.016,0.233-0.024c71.057-0.336,128.764-58.451,128.764-129.843
									C543.953,206.529,485.912,148.278,414.572,148.278z"/>
							</g>
							<g>
								<path fill="#E58DFF" d="M285.743,421.367c0.294,0,0.572-0.061,0.832-0.16h127.255c0.235,0.079,0.482,0.132,0.743,0.132
									c78.681,0,142.692-64.244,142.692-143.211c0-78.966-64.012-143.21-142.692-143.21c-0.43,0-0.827,0.124-1.174,0.326H0v4.719
									h414.957c0.415,0,0.8-0.117,1.138-0.307c75.388,0.824,136.468,62.618,136.468,138.472
									c0,76.001-61.317,137.891-136.907,138.478c-0.222-0.07-0.454-0.118-0.699-0.118H286.127c-0.301,0-0.586,0.062-0.851,0.165
									c-78.467,0.254-142.226,64.394-142.226,143.205c0,78.966,64.011,143.21,142.692,143.21
									c76.088,0,137.99,62.127,137.99,138.491s-61.902,138.492-137.99,138.492H0v4.719h285.818c0.004,0,0.007-0.001,0.011-0.001
									c78.641-0.047,142.606-64.272,142.606-143.209c0-78.966-64.011-143.21-142.692-143.21
									c-76.088,0-137.99-62.127-137.99-138.491C147.752,483.495,209.654,421.367,285.743,421.367z"/>
							</g>
							<g>
								<path fill="#E58DFF" d="M285.743,434.727c0.415,0,0.798-0.117,1.136-0.306h126.607c0.326,0.172,0.692,0.278,1.086,0.278
									c86.021,0,156.004-70.237,156.004-156.57c0-85.726-69.006-155.568-154.195-156.546c-0.396-0.305-0.886-0.494-1.425-0.494H0
									v4.719h413.175c0.391,0.292,0.871,0.471,1.397,0.471c83.428,0,151.302,68.12,151.302,151.85
									c0,83.249-67.097,151.055-149.866,151.833c-0.318-0.161-0.672-0.26-1.052-0.26H286.127c-0.422,0-0.812,0.12-1.155,0.316
									c-70.987,0.418-128.611,58.5-128.611,129.842c0,71.599,58.041,129.851,129.381,129.851
									c83.428,0,151.302,68.12,151.302,151.85c0,83.731-67.874,151.851-151.302,151.851H0v4.719h285.818
									c0.004,0,0.007-0.001,0.011-0.001c85.981-0.047,155.918-70.265,155.918-156.569c0-86.333-69.983-156.569-156.004-156.569
									c-68.748,0-124.679-56.134-124.679-125.132C161.063,490.861,216.994,434.727,285.743,434.727z"/>
							</g>
							<g>
								<path fill="#E58DFF" d="M414.572,112.918c90.768,0,164.613,74.113,164.613,165.211c0,90.528-72.926,164.269-162.914,165.189
									c-0.375-0.255-0.828-0.403-1.315-0.403H286.127c-0.523,0-1.001,0.177-1.391,0.466
									c-63.539,0.545-115.064,52.583-115.064,116.479c0,64.233,52.069,116.49,116.07,116.49
									c90.769,0,164.613,74.113,164.613,165.211c0,75.988-51.385,140.147-121.109,159.343h15.325
									c64.446-24.044,110.485-86.396,110.485-159.343c0-93.7-75.954-169.93-169.315-169.93
									c-61.409,0-111.368-50.141-111.368-111.771c0-61.632,49.959-111.772,111.368-111.772c0.515,0,0.988-0.171,1.375-0.453
									h126.113c0.381,0.266,0.842,0.425,1.341,0.425c93.361,0,169.315-76.23,169.315-169.93
									c0-93.166-75.094-169.048-167.725-169.909c-0.354-0.213-0.763-0.344-1.206-0.344H0v4.719h413.403
									C413.749,112.795,414.144,112.918,414.572,112.918z"/>
							</g>
							<g>
								<path fill="#E58DFF" d="M414.572,99.559c98.108,0,177.924,80.106,177.924,178.57c0,98.464-79.817,178.57-177.924,178.57
									c-0.464,0-0.894,0.139-1.258,0.372H286.948c-0.354-0.214-0.763-0.344-1.206-0.344c-56.661,0-102.759,46.265-102.759,103.132
									c0,56.867,46.098,103.131,102.759,103.131c98.108,0,177.924,80.106,177.924,178.57c0,69.502-39.772,129.851-97.669,159.343
									h9.91c55.176-31.572,92.461-91.167,92.461-159.343c0-101.066-81.926-183.289-182.626-183.289
									c-54.069,0-98.057-44.147-98.057-98.412c0-53.996,43.555-97.968,97.255-98.403c0.349,0.207,0.752,0.334,1.187,0.334h128.829
									c0.48,0,0.926-0.146,1.298-0.394c99.927-0.912,180.944-82.767,180.944-183.268c0-100.624-81.215-182.558-181.311-183.272
									c-0.286-0.124-0.6-0.194-0.93-0.194H0v4.719h413.684C413.958,99.494,414.257,99.559,414.572,99.559z"/>
							</g>
							<g>
								<path fill="#E58DFF" d="M414.572,86.199c105.448,0,191.236,86.099,191.236,191.929c0,105.831-85.788,191.93-191.236,191.93
									c-0.354,0-0.687,0.084-0.988,0.225H286.679c-0.287-0.126-0.603-0.197-0.937-0.197c-49.321,0-89.447,40.272-89.447,89.773
									c0,49.5,40.126,89.772,89.447,89.772c105.448,0,191.236,86.099,191.236,191.929c0,66.298-33.67,124.849-84.746,159.343
									h8.193c49.191-35.76,81.255-93.86,81.255-159.343c0-108.432-87.897-196.648-195.937-196.648
									c-46.729,0-84.745-38.154-84.745-85.053c0-46.718,37.725-84.754,84.206-85.047c0.284,0.122,0.596,0.19,0.924,0.19h128.829
									c0.367,0,0.711-0.092,1.021-0.243c107.395-0.763,194.532-88.67,194.532-196.631c0-108.169-87.473-196.212-195.153-196.638
									c-0.13-0.023-0.263-0.04-0.399-0.04H0v4.719h414.271C414.371,86.182,414.469,86.199,414.572,86.199z"/>
							</g>
							<g>
								<path fill="#E58DFF" d="M415.607,72.853c112.313,0.563,203.512,92.427,203.512,205.275
									c0,113.197-91.76,205.29-204.548,205.29c-0.198,0-0.388,0.032-0.571,0.078H286.222c-0.155-0.032-0.315-0.05-0.479-0.05
									c-41.982,0-76.136,34.278-76.136,76.412c0,42.134,34.154,76.412,76.136,76.412c112.788,0,204.548,92.092,204.548,205.289
									c0,64.239-29.56,121.672-75.736,159.343h7.507c3.993-3.452,7.878-7.066,11.643-10.845
									c39.522-39.665,61.288-92.403,61.288-148.498c0-56.095-21.766-108.832-61.288-148.497
									c-39.522-39.665-92.069-61.51-147.961-61.51c-39.389,0-71.434-32.162-71.434-71.693c0-39.503,31.999-71.645,71.349-71.691
									c0.152,0.031,0.309,0.048,0.47,0.048h128.829c0.213,0,0.415-0.037,0.611-0.091c55.52-0.258,107.68-22.069,146.966-61.498
									c39.522-39.665,61.288-92.403,61.288-148.498c0-56.095-21.766-108.832-61.288-148.497
									c-39.522-39.665-92.069-61.51-147.961-61.51c-0.243,0-0.472,0.048-0.693,0.116H0v4.719h414.957
									C415.184,72.956,415.399,72.914,415.607,72.853z"/>
							</g>
							<g>
								<path fill="#E58DFF" d="M415.982,59.498c119.479,0.766,216.448,98.541,216.448,218.631
									c0,120.265-97.251,218.155-216.971,218.638c-0.162-0.036-0.33-0.057-0.503-0.057H286.127c-0.228,0-0.444,0.043-0.653,0.104
									c-34.518,0.146-62.557,28.369-62.557,63.046c0,34.767,28.183,63.052,62.825,63.052
									c120.127,0,217.858,98.086,217.858,218.649c0,62.766-26.497,119.43-68.844,159.343h6.932
									c0.474-0.468,0.956-0.925,1.427-1.398c42.036-42.189,65.186-98.281,65.186-157.945c0-59.663-23.15-115.756-65.186-157.944
									s-97.926-65.423-157.374-65.423c-32.049,0-58.123-26.169-58.123-58.333c0-32.166,26.074-58.334,58.123-58.334
									c0.22,0,0.429-0.04,0.63-0.097h127.66c0.174,0.041,0.353,0.068,0.539,0.068c59.448,0,115.338-23.234,157.374-65.422
									c42.036-42.189,65.186-98.281,65.186-157.945c0-59.663-23.15-115.756-65.186-157.944
									C529.91,77.996,474.02,54.761,414.572,54.761c-0.383,0-0.739,0.101-1.059,0.264H0v4.719h414.957
									C415.326,59.743,415.671,59.65,415.982,59.498z"/>
							</g>
							<g>
								<path fill="#E58DFF" d="M416.245,46.142C542.944,47.05,645.741,150.76,645.741,278.129
									c0,127.486-102.986,231.273-229.845,231.992c-0.288-0.126-0.605-0.199-0.94-0.199H286.127c-0.381,0-0.735,0.099-1.053,0.26
									c-26.994,0.362-48.846,22.501-48.846,49.677c0,27.401,22.212,49.693,49.514,49.693c127.467,0,231.17,104.079,231.17,232.008
									c0,61.647-24.088,117.75-63.305,159.343h6.571c39.697-43.677,61.435-99.832,61.435-159.343
									c0-63.232-24.535-122.679-69.085-167.391c-44.55-44.712-103.783-69.336-166.786-69.336
									c-24.709,0-44.812-20.175-44.812-44.974c0-24.799,20.103-44.975,44.812-44.975c0.368,0,0.711-0.092,1.021-0.243h126.837
									c0.297,0.136,0.624,0.216,0.971,0.216c63.003,0,122.236-24.624,166.786-69.336c44.55-44.712,69.085-104.16,69.085-167.392
									c0-63.232-24.535-122.679-69.085-167.391c-44.551-44.712-103.783-69.336-166.786-69.336c-0.491,0-0.946,0.152-1.323,0.41H0
									v4.719h414.957C415.433,46.531,415.875,46.386,416.245,46.142z"/>
							</g>
							<g>
								<path fill="#E58DFF" d="M414.572,32.761c134.808,0,244.481,110.071,244.481,245.368
									c0,134.764-108.815,244.487-242.893,245.348c-0.353-0.212-0.761-0.342-1.203-0.342H286.127c-0.493,0-0.95,0.153-1.328,0.414
									c-19.526,0.505-35.259,16.593-35.259,36.31c0,20.034,16.24,36.333,36.202,36.333c134.807,0,244.481,110.071,244.481,245.368
									c0,60.769-22.135,116.44-58.726,159.343h6.316c36.979-44.737,57.111-100.485,57.111-159.343
									c0-66.8-25.92-129.603-72.983-176.837c-47.065-47.236-109.64-73.249-176.199-73.249c-17.369,0-31.5-14.182-31.5-31.614
									c0-17.433,14.131-31.616,31.5-31.616c0.477,0,0.92-0.145,1.29-0.39h126.299c0.361,0.226,0.783,0.362,1.24,0.362
									c66.559,0,129.134-26.014,176.199-73.249c47.064-47.235,72.984-110.037,72.984-176.838c0-66.8-25.92-129.603-72.984-176.837
									C544.109,54.46,482.198,28.504,416.277,28.063c-0.377-0.257-0.831-0.408-1.321-0.408H0v4.719h413.286
									C413.656,32.617,414.097,32.761,414.572,32.761z"/>
							</g>
						</g>
					</g>
					<g>
						<g>
							<g>
								<path fill="#1BC5C8" d="M64.32,1000.904h5.62c-10.827-18.829-24.179-36.36-39.907-52.144
									C20.615,939.308,10.567,930.721,0,923.007v6.018C25.87,948.451,47.785,972.897,64.32,1000.904z"/>
							</g>
							<g>
								<path fill="#1BC5C8" d="M298.533,312.107H170.141c-0.027,0-0.053,0.007-0.08,0.008c-0.117-0.018-0.235-0.036-0.357-0.036
									c-17.369,0-31.5-14.182-31.5-31.615c0-17.432,14.131-31.615,31.5-31.615c66.559,0,129.135-26.014,176.199-73.249
									c46.56-46.729,72.41-108.698,72.958-174.697h-4.703c-1.152,134.313-110.36,243.227-244.454,243.227
									c-19.962,0-36.202,16.299-36.202,36.333c0,20.034,16.24,36.334,36.202,36.334c0.027,0,0.053-0.007,0.08-0.008
									c0.117,0.018,0.235,0.036,0.357,0.036h128.392c134.807,0,244.482,110.072,244.482,245.368S433.341,807.563,298.533,807.563
									H0v4.719h298.533c66.559,0,129.135-26.014,176.199-73.249c47.064-47.235,72.984-110.038,72.984-176.838
									s-25.92-129.603-72.984-176.838C427.668,338.121,365.093,312.107,298.533,312.107z"/>
							</g>
							<g>
								<path fill="#1BC5C8" d="M48.675,1000.904h5.741c-9.486-15.306-20.78-29.635-33.796-42.698
									C14.057,951.618,7.166,945.479,0,939.778v6.214C18.968,961.569,35.419,980.116,48.675,1000.904z"/>
							</g>
							<g>
								<path fill="#1BC5C8" d="M298.533,325.466H170.141c-0.027,0-0.053,0.007-0.08,0.008c-0.117-0.018-0.235-0.036-0.357-0.036
									c-24.709,0-44.811-20.175-44.811-44.974c0-24.799,20.102-44.974,44.811-44.974c63.004,0,122.236-24.624,166.787-69.336
									c44.047-44.206,68.511-102.819,69.059-165.25h-4.703c-1.152,126.946-104.389,229.867-231.143,229.867
									c-27.302,0-49.513,22.292-49.513,49.693c0,27.401,22.211,49.693,49.513,49.693c0.027,0,0.052-0.007,0.08-0.008
									c0.117,0.018,0.235,0.036,0.358,0.036h128.392c127.467,0,231.17,104.079,231.17,232.009s-103.703,232.009-231.17,232.009H0
									v4.719h298.533c63.004,0,122.236-24.624,166.787-69.336c44.55-44.712,69.085-104.16,69.085-167.392
									s-24.535-122.68-69.085-167.392C420.769,350.091,361.537,325.466,298.533,325.466z"/>
							</g>
							<g>
								<path fill="#1BC5C8" d="M32.694,1000.904h5.862c-7.951-11.811-17.081-22.948-27.347-33.251
									c-3.633-3.646-7.375-7.14-11.208-10.5v6.45C12.245,974.742,23.221,987.26,32.694,1000.904z"/>
							</g>
							<g>
								<path fill="#1BC5C8" d="M298.533,338.826H170.141c-0.027,0-0.052,0.007-0.08,0.008c-0.117-0.018-0.235-0.036-0.358-0.036
									c-32.048,0-58.122-26.168-58.122-58.334c0-32.165,26.074-58.334,58.122-58.334c59.448,0,115.338-23.234,157.374-65.423
									c41.532-41.683,64.613-96.941,65.161-155.804h-4.703c-1.151,119.58-98.417,216.508-217.831,216.508
									c-34.642,0-62.824,28.285-62.824,63.053c0,34.767,28.182,63.053,62.824,63.053c0.027,0,0.053-0.007,0.08-0.008
									c0.117,0.018,0.235,0.036,0.357,0.036h128.392c120.128,0,217.859,98.085,217.859,218.649s-97.731,218.649-217.859,218.649H0
									v4.719h298.533c59.448,0,115.338-23.234,157.374-65.423c42.036-42.189,65.186-98.281,65.186-157.945
									s-23.15-115.756-65.186-157.945C413.871,362.061,357.982,338.826,298.533,338.826z"/>
							</g>
							<g>
								<path fill="#1BC5C8" d="M298.533,352.186H170.141c-0.027,0-0.051,0.007-0.077,0.008c-0.118-0.018-0.236-0.036-0.36-0.036
									c-39.389,0-71.434-32.162-71.434-71.693c0-39.532,32.046-71.694,71.434-71.694c55.893,0,108.44-21.844,147.961-61.51
									c39.018-39.159,60.715-91.062,61.262-146.357h-4.703c-1.151,112.213-92.446,203.148-204.52,203.148
									c-41.982,0-76.136,34.279-76.136,76.412s34.154,76.412,76.136,76.412c0.026,0,0.051-0.007,0.077-0.008
									c0.118,0.018,0.237,0.036,0.36,0.036h128.392c112.788,0,204.547,92.092,204.547,205.289s-91.759,205.289-204.547,205.289H0
									v4.719h298.533c55.893,0,108.44-21.845,147.962-61.51c39.522-39.665,61.288-92.403,61.288-148.498
									s-21.766-108.833-61.288-148.498C406.973,374.031,354.426,352.186,298.533,352.186z"/>
							</g>
							<g>
								<path fill="#1BC5C8" d="M22.256,1000.904c-6.17-8.357-12.997-16.314-20.46-23.804c-0.592-0.595-1.197-1.172-1.796-1.759
									v6.804c5.766,5.916,11.174,12.183,16.201,18.759H22.256z"/>
							</g>
							<g>
								<path fill="#1BC5C8" d="M298.533,365.545H170.141c-0.027,0-0.052,0.007-0.08,0.008c-0.117-0.018-0.235-0.036-0.358-0.036
									c-46.729,0-84.745-38.155-84.745-85.053c0-46.898,38.017-85.053,84.745-85.053c107.327,0,194.761-87.059,195.911-194.507
									h-4.702c-1.15,104.846-86.474,189.789-191.209,189.789c-49.321,0-89.447,40.272-89.447,89.772
									c0,49.501,40.126,89.772,89.447,89.772c0.027,0,0.052-0.007,0.08-0.008c0.117,0.018,0.235,0.036,0.358,0.036h128.392
									c105.448,0,191.236,86.099,191.236,191.93s-85.788,191.93-191.236,191.93H0v4.719h298.533
									c108.04,0,195.938-88.216,195.938-196.649S406.574,365.545,298.533,365.545z"/>
							</g>
							<g>
								<path fill="#1BC5C8" d="M5.212,1000.904c-1.698-2.073-3.433-4.114-5.212-6.115v6.115H5.212z"/>
							</g>
							<g>
								<path fill="#1BC5C8" d="M298.533,378.905H170.141c-0.027,0-0.053,0.007-0.08,0.008c-0.117-0.018-0.235-0.036-0.357-0.036
									c-54.069,0-98.056-44.148-98.056-98.413c0-54.265,43.988-98.413,98.056-98.413c99.987,0,181.45-81.066,182.6-181.148h-4.702
									c-1.149,97.48-80.503,176.429-177.898,176.429c-56.661,0-102.758,46.265-102.758,103.131
									c0,56.867,46.097,103.132,102.758,103.132c0.027,0,0.052-0.007,0.08-0.008c0.117,0.018,0.235,0.036,0.358,0.036h128.392
									c98.108,0,177.925,80.106,177.925,178.57s-79.817,178.57-177.925,178.57H0v4.719h298.533
									c100.701,0,182.627-82.223,182.627-183.289S399.234,378.905,298.533,378.905z"/>
							</g>
							<g>
								<path fill="#1BC5C8" d="M298.533,392.265H170.141c-0.027,0-0.053,0.007-0.08,0.008c-0.117-0.018-0.235-0.036-0.357-0.036
									c-61.409,0-111.368-50.141-111.368-111.772s49.959-111.772,111.368-111.772c92.647,0,168.14-75.073,169.288-167.788h-4.702
									c-1.148,90.113-74.532,163.069-164.586,163.069c-64.001,0-116.07,52.258-116.07,116.491
									c0,64.234,52.069,116.491,116.07,116.491c0.027,0,0.052-0.007,0.08-0.008c0.117,0.018,0.235,0.036,0.358,0.036h128.392
									c90.768,0,164.613,74.113,164.613,165.211s-73.845,165.211-164.613,165.211H0v4.719h298.533
									c93.361,0,169.315-76.23,169.315-169.93S391.894,392.265,298.533,392.265z"/>
							</g>
							<g>
								<path fill="#1BC5C8" d="M298.533,405.624H170.141c-0.027,0-0.053,0.007-0.08,0.008c-0.117-0.018-0.235-0.036-0.357-0.036
									c-68.748,0-124.679-56.134-124.679-125.132s55.931-125.132,124.679-125.132c85.307,0,154.83-69.08,155.977-154.428h-4.702
									c-1.147,82.746-68.56,149.71-151.275,149.71c-71.341,0-129.381,58.251-129.381,129.851
									c0,71.6,58.041,129.851,129.381,129.851c0.027,0,0.053-0.007,0.08-0.008c0.117,0.018,0.235,0.036,0.357,0.036h128.392
									c83.428,0,151.302,68.12,151.302,151.851s-67.874,151.851-151.302,151.851H0v4.719h298.533
									c86.021,0,156.004-70.237,156.004-156.57S384.554,405.624,298.533,405.624z"/>
							</g>
							<g>
								<path fill="#1BC5C8" d="M298.533,418.984H170.141c-0.027,0-0.053,0.007-0.08,0.008c-0.117-0.018-0.235-0.036-0.357-0.036
									c-76.088,0-137.99-62.127-137.99-138.492c0-76.364,61.902-138.491,137.99-138.491c77.968,0,141.52-63.087,142.666-141.069
									h-4.702c-1.146,75.38-62.589,136.35-137.964,136.35c-78.681,0-142.692,64.244-142.692,143.21
									c0,78.967,64.011,143.21,142.692,143.21c0.027,0,0.052-0.007,0.08-0.008c0.117,0.018,0.235,0.036,0.358,0.036h128.392
									c76.088,0,137.991,62.127,137.991,138.492s-61.903,138.492-137.991,138.492H0v4.719h298.533
									c78.681,0,142.693-64.244,142.693-143.21S377.214,418.984,298.533,418.984z"/>
							</g>
							<g>
								<path fill="#1BC5C8" d="M298.533,432.344H170.141c-0.027,0-0.052,0.007-0.08,0.008c-0.117-0.018-0.235-0.036-0.358-0.036
									c-83.428,0-151.302-68.12-151.302-151.851c0-83.731,67.874-151.851,151.302-151.851c70.628,0,128.21-57.094,129.354-127.709
									h-4.702c-1.144,68.013-56.617,122.99-124.653,122.99c-86.021,0-156.003,70.237-156.003,156.57s69.982,156.57,156.003,156.57
									c0.027,0,0.053-0.007,0.08-0.008c0.117,0.018,0.235,0.036,0.357,0.036h128.392c68.749,0,124.68,56.134,124.68,125.132
									s-55.931,125.132-124.68,125.132H0v4.719h298.533c71.341,0,129.382-58.251,129.382-129.851
									C427.915,490.594,369.874,432.344,298.533,432.344z"/>
							</g>
							<g>
								<path fill="#1BC5C8" d="M298.533,445.703H170.141c-0.027,0-0.053,0.007-0.08,0.008c-0.117-0.018-0.235-0.036-0.357-0.036
									c-90.769,0-164.613-74.113-164.613-165.211c0-91.098,73.845-165.21,164.613-165.21c63.288,0,114.9-51.101,116.043-114.35
									h-4.702c-1.142,60.646-50.646,109.631-111.341,109.631c-93.361,0-169.315,76.23-169.315,169.929
									s75.954,169.93,169.315,169.93c0.027,0,0.053-0.007,0.08-0.008c0.117,0.018,0.235,0.036,0.357,0.036h128.392
									c61.409,0,111.368,50.141,111.368,111.772s-49.96,111.772-111.368,111.772H0v4.719h298.533
									c64.001,0,116.07-52.258,116.07-116.491S362.535,445.703,298.533,445.703z"/>
							</g>
							<g>
								<path fill="#1BC5C8" d="M170.062,459.071c-0.117-0.018-0.235-0.036-0.358-0.036C90.227,459.034,22.761,406.461,0,334.148
									v14.031c26.893,67.646,92.824,115.574,169.704,115.574c0.027,0,0.053-0.007,0.08-0.008c0.117,0.018,0.235,0.036,0.357,0.036
									h128.392c54.069,0,98.057,44.148,98.057,98.413c0,54.265-43.988,98.413-98.057,98.413H0v4.719h298.533
									c56.662,0,102.759-46.265,102.759-103.131c0-56.867-46.097-103.131-102.759-103.131H170.141
									C170.114,459.063,170.089,459.07,170.062,459.071z"/>
							</g>
							<g>
								<path fill="#1BC5C8" d="M267.734,0.904c-1.14,53.28-44.675,96.271-98.03,96.271C92.824,97.175,26.893,145.103,0,212.749
									v14.031c22.761-72.313,90.227-124.886,169.704-124.886c55.948,0,101.591-45.108,102.732-100.99H267.734z"/>
							</g>
							<g>
								<path fill="#1BC5C8" d="M170.062,472.43c-0.117-0.018-0.235-0.036-0.358-0.036c-73.702,0-137.79-42.067-169.704-103.528
									v9.805c33.912,58.798,97.28,98.442,169.704,98.442c0.027,0,0.053-0.007,0.08-0.008c0.117,0.018,0.235,0.036,0.357,0.036
									h128.392c46.729,0,84.746,38.155,84.746,85.053c0,46.899-38.017,85.053-84.746,85.053H0v4.719h298.533
									c49.322,0,89.448-40.272,89.448-89.772s-40.126-89.772-89.448-89.772H170.141
									C170.114,472.422,170.089,472.429,170.062,472.43z"/>
							</g>
							<g>
								<path fill="#1BC5C8" d="M254.396,0.904c-1.14,45.91-38.678,82.912-84.692,82.912C97.28,83.816,33.912,123.459,0,182.257
									v9.805C31.914,130.601,96.002,88.535,169.704,88.535c48.608,0,88.283-39.116,89.42-87.631H254.396z"/>
							</g>
							<g>
								<path fill="#1BC5C8" d="M170.062,485.79c-0.117-0.018-0.235-0.036-0.358-0.036c-70.582,0-132.927-36.067-169.704-90.801
									v8.426c6.505,9.006,13.755,17.566,21.743,25.584c39.522,39.666,92.068,61.51,147.961,61.51c0.027,0,0.052-0.007,0.08-0.008
									c0.117,0.018,0.235,0.036,0.358,0.036h128.392c39.389,0,71.434,32.161,71.434,71.693c0,39.532-32.045,71.693-71.434,71.693
									H0v4.719h298.533c41.982,0,76.136-34.279,76.136-76.412c0-42.134-34.155-76.412-76.136-76.412H170.141
									C170.114,485.782,170.089,485.789,170.062,485.79z"/>
							</g>
							<g>
								<path fill="#1BC5C8" d="M241.084,0.904c-1.135,38.543-32.707,69.552-71.38,69.552c-55.893,0-108.439,21.845-147.961,61.51
									C13.755,139.984,6.505,148.544,0,157.55v8.426c36.777-54.733,99.122-90.801,169.704-90.801
									c41.266,0,74.945-33.126,76.082-74.271H241.084z"/>
							</g>
							<g>
								<path fill="#1BC5C8" d="M170.064,499.149c-0.118-0.018-0.236-0.036-0.36-0.036c-68.518,0-129.738-31.92-169.704-81.711v7.58
									c3.912,4.612,8.016,9.096,12.331,13.426c42.036,42.189,97.926,65.423,157.373,65.423c0.026,0,0.051-0.007,0.077-0.008
									c0.118,0.018,0.237,0.036,0.36,0.036h128.392c32.049,0,58.123,26.168,58.123,58.334s-26.074,58.334-58.123,58.334H0v4.719
									h298.533c34.642,0,62.825-28.285,62.825-63.053c0-34.767-28.183-63.053-62.825-63.053H170.141
									C170.115,499.142,170.09,499.149,170.064,499.149z"/>
							</g>
							<g>
								<path fill="#1BC5C8" d="M227.773,0.904c-1.128,31.175-26.735,56.192-58.069,56.192c-59.447,0-115.337,23.234-157.373,65.423
									c-4.315,4.33-8.419,8.814-12.331,13.426v7.58c39.966-49.79,101.186-81.711,169.704-81.711
									c33.926,0,61.64-27.133,62.771-60.911H227.773z"/>
							</g>
							<g>
								<path fill="#1BC5C8" d="M170.061,512.509c-0.117-0.018-0.235-0.036-0.357-0.036c-67.011,0-127.443-28.775-169.704-74.648
									v7.03c0.967,1.004,1.931,2.01,2.918,3.001c44.55,44.712,103.783,69.336,166.786,69.336c0.027,0,0.052-0.007,0.08-0.008
									c0.117,0.018,0.235,0.036,0.358,0.036h128.392c24.709,0,44.812,20.175,44.812,44.974c0,24.799-20.103,44.974-44.812,44.974
									H0v4.719h298.533c27.302,0,49.513-22.292,49.513-49.693s-22.212-49.693-49.513-49.693H170.141
									C170.114,512.501,170.088,512.508,170.061,512.509z"/>
							</g>
							<g>
								<path fill="#1BC5C8" d="M214.462,0.904c-1.118,23.808-20.764,42.833-44.758,42.833c-63.003,0-122.236,24.624-166.786,69.336
									c-0.987,0.99-1.951,1.996-2.918,3.001v7.03c42.261-45.873,102.693-74.647,169.704-74.647
									c26.586,0,48.337-21.142,49.459-47.552H214.462z"/>
							</g>
							<g>
								<path fill="#1BC5C8" d="M170.061,525.869c-0.117-0.018-0.235-0.036-0.357-0.036c-65.854,0-125.701-26.277-169.704-68.921
									v6.657c46.252,43.255,106.157,66.983,169.704,66.983c0.027,0,0.053-0.007,0.08-0.008c0.117,0.018,0.235,0.036,0.357,0.036
									h128.392c17.37,0,31.501,14.182,31.501,31.615c0,17.432-14.131,31.615-31.501,31.615H0v4.719h298.533
									c19.962,0,36.202-16.299,36.202-36.333s-16.24-36.333-36.202-36.333H170.141
									C170.114,525.861,170.088,525.868,170.061,525.869z"/>
							</g>
							<g>
								<path fill="#1BC5C8" d="M201.124,0.904c-1.102,16.436-14.768,29.473-31.42,29.473C106.157,30.377,46.252,54.105,0,97.36
									v6.656c44.003-42.643,103.85-68.92,169.704-68.92c19.245,0,35.026-15.151,36.134-34.192H201.124z"/>
							</g>
						</g>
					</g>
				</g>
				<g>
					<g>
						<g>
							<g>
								<path fill="#FFD838" d="M1504.93,999.096v-192.78c0-117.885,83.868-216.548,195.07-239.462v-4.848
									c-47.722,9.549-91.593,32.915-126.788,68.11c-47.065,47.065-72.984,109.64-72.984,176.199v192.78H1504.93z"/>
							</g>
							<g>
								<path fill="#FFD838" d="M996.638,999.096c44.826-56.361,113.964-92.563,191.407-92.563s146.581,36.202,191.407,92.563h6.144
									c-6.542-8.472-13.66-16.587-21.353-24.28c-47.064-47.065-109.639-72.984-176.198-72.984
									c-66.559,0-129.135,25.92-176.199,72.984c-7.693,7.693-14.81,15.808-21.353,24.28H996.638z"/>
							</g>
							<g>
								<path fill="#FFD838" d="M1518.241,999.096v-192.78c0-110.512,77.955-203.143,181.759-225.836v-4.865
									c-44.149,9.363-84.711,31.25-117.375,63.915c-44.55,44.551-69.085,103.783-69.085,166.787v192.78H1518.241z"/>
							</g>
							<g>
								<path fill="#FFD838" d="M1013.953,999.096c42.408-48.536,104.728-79.251,174.092-79.251
									c69.364,0,131.684,30.715,174.092,79.251h6.343c-4.32-5.113-8.861-10.08-13.649-14.867
									c-44.55-44.55-103.783-69.085-166.786-69.085c-63.004,0-122.237,24.535-166.787,69.085
									c-4.788,4.788-9.329,9.754-13.649,14.867H1013.953z"/>
							</g>
							<g>
								<path fill="#FFD838" d="M1531.553,999.096v-192.78c0-103.138,72.042-189.763,168.447-212.204v-4.881
									c-40.578,9.153-77.83,29.578-107.963,59.711c-42.036,42.036-65.187,97.926-65.187,157.374v192.78H1531.553z"/>
							</g>
							<g>
								<path fill="#FFD838" d="M1032.058,999.096c39.599-40.649,94.891-65.94,155.987-65.94s116.388,25.291,155.987,65.94h6.642
									c-1.722-1.84-3.465-3.665-5.256-5.456c-42.036-42.036-97.926-65.186-157.373-65.186c-59.448,0-115.338,23.15-157.374,65.186
									c-1.791,1.791-3.534,3.615-5.256,5.456H1032.058z"/>
							</g>
							<g>
								<path fill="#FFD838" d="M1544.864,999.096v-192.78c0-95.755,66.143-176.34,155.136-198.5v-4.901
									c-37.002,8.917-70.954,27.842-98.55,55.439c-39.522,39.522-61.288,92.069-61.288,147.962v192.78H1544.864z"/>
							</g>
							<g>
								<path fill="#FFD838" d="M1051.228,999.096c36.269-32.696,84.257-52.629,136.817-52.629
									c52.56,0,100.547,19.933,136.816,52.629h7.074c-39.024-37.012-89.894-57.33-143.89-57.33s-104.867,20.318-143.891,57.33
									H1051.228z"/>
							</g>
							<g>
								<path fill="#FFD838" d="M1558.175,999.096v-192.78c0-88.366,60.25-162.913,141.825-184.751v-4.872
									c-84.198,21.955-146.527,98.645-146.527,189.623v192.78H1558.175z"/>
							</g>
							<g>
								<path fill="#FFD838" d="M1072.039,999.096c32.198-24.648,72.417-39.318,116.006-39.318c43.589,0,83.811,14.67,116.01,39.318
									h7.585c-33.741-27.502-76.773-44.019-123.595-44.019c-46.822,0-89.854,16.517-123.596,44.019H1072.039z"/>
							</g>
							<g>
								<path fill="#FFD838" d="M1571.487,999.096v-192.78c0-80.969,54.369-149.472,128.513-170.938v-4.892
									c-76.771,21.603-133.215,92.246-133.215,175.83v192.78H1571.487z"/>
							</g>
							<g>
								<path fill="#FFD838" d="M1095.524,999.096c26.975-16.49,58.656-26.006,92.521-26.006c33.866,0,65.551,9.515,92.527,26.006
									h8.713c-28.995-19.387-63.819-30.707-101.24-30.707c-37.422,0-72.246,11.321-101.241,30.707H1095.524z"/>
							</g>
							<g>
								<path fill="#FFD838" d="M1584.798,999.096v-192.78c0-73.559,48.501-135.999,115.202-157.033v-4.92
									c-69.332,21.195-119.904,85.776-119.904,161.953v192.78H1584.798z"/>
							</g>
							<g>
								<path fill="#FFD838" d="M1124.67,999.096c19.517-8.172,40.927-12.695,63.375-12.695c22.448,0,43.857,4.523,63.373,12.695
									h11.322c-22.544-11.129-47.9-17.396-74.695-17.396c-26.796,0-52.152,6.267-74.696,17.396H1124.67z"/>
							</g>
							<g>
								<path fill="#FFD838" d="M1223.575,999.096c-11.417-2.67-23.311-4.085-35.53-4.085s-24.113,1.416-35.53,4.085H1223.575z"/>
							</g>
							<g>
								<path fill="#FFD838" d="M1598.109,999.096v-192.78c0-66.133,42.653-122.484,101.891-143.009v-4.97
									c-61.877,20.715-106.593,79.221-106.593,147.979v192.78H1598.109z"/>
							</g>
							<g>
								<path fill="#FFD838" d="M1611.42,999.096v-192.78c0-58.684,36.827-108.921,88.58-128.837v-5.031
									c-54.401,20.144-93.281,72.549-93.281,133.868v192.78H1611.42z"/>
							</g>
							<g>
								<path fill="#FFD838" d="M1624.732,999.096v-192.78c0-51.203,31.029-95.289,75.268-114.46v-5.107
									c-46.897,19.452-79.97,65.717-79.97,119.567v192.78H1624.732z"/>
							</g>
							<g>
								<path fill="#FFD838" d="M1638.043,999.096v-192.78c0-43.672,25.273-81.547,61.957-99.786v-5.225
									c-39.359,18.594-66.659,58.672-66.659,105.012v192.78H1638.043z"/>
							</g>
							<g>
								<path fill="#FFD838" d="M1651.354,999.096v-192.78c0-36.062,19.571-67.634,48.646-84.668v-5.407
									c-31.771,17.498-53.347,51.312-53.347,90.075v192.78H1651.354z"/>
							</g>
							<g>
								<path fill="#FFD838" d="M1664.665,999.096v-192.78c0-28.3,13.957-53.386,35.335-68.786v-5.737
									c-24.112,16.04-40.036,43.455-40.036,74.523v192.78H1664.665z"/>
							</g>
							<g>
								<path fill="#FFD838" d="M1677.977,999.096v-192.78c0-20.229,8.466-38.506,22.023-51.515v-6.339
									c-16.339,13.975-26.725,34.718-26.725,57.854v192.78H1677.977z"/>
							</g>
							<g>
								<path fill="#FFD838" d="M1691.288,999.096v-192.78c0-11.206,3.196-21.675,8.712-30.56v-8.17
									c-8.39,10.681-13.413,24.126-13.413,38.731v192.78H1691.288z"/>
							</g>
							<g>
								<path fill="#FFD838" d="M1700,999.096V803.276c-0.061,1.007-0.102,2.018-0.102,3.04v192.78H1700z"/>
							</g>
						</g>
					</g>
					<g>
						<g>
							<g>
								<path fill="#E58DFF" d="M1518.023,999.096c27.721-80.98,96.838-142.926,181.977-160.47v-4.848
									c-47.722,9.549-91.593,32.915-126.788,68.11c-27.786,27.786-48.195,60.981-60.259,97.207H1518.023z"/>
							</g>
							<g>
								<path fill="#E58DFF" d="M1532.146,999.096c26.848-73.603,90.098-129.846,167.854-146.844v-4.865
									c-44.149,9.363-84.711,31.25-117.375,63.915c-25.219,25.219-44.017,55.145-55.589,87.795H1532.146z"/>
							</g>
							<g>
								<path fill="#E58DFF" d="M1546.38,999.096c25.863-66.242,83.246-116.83,153.62-133.212v-4.881
									c-40.578,9.153-77.83,29.578-107.963,59.711c-22.643,22.643-39.795,49.309-50.812,78.382H1546.38z"/>
							</g>
							<g>
								<path fill="#E58DFF" d="M1560.743,999.096c24.747-58.876,76.275-103.825,139.257-119.508v-4.901
									c-37.002,8.917-70.954,27.842-98.55,55.439c-20.056,20.056-35.529,43.47-45.916,68.97H1560.743z"/>
							</g>
							<g>
								<path fill="#E58DFF" d="M1575.273,999.096c23.468-51.522,69.143-90.879,124.727-105.759v-4.872
									c-58.2,15.176-105.945,56.508-129.884,110.631H1575.273z"/>
							</g>
							<g>
								<path fill="#E58DFF" d="M1590.012,999.096C1612,954.912,1651.821,921.099,1700,907.15v-4.892
									c-50.797,14.294-92.687,50.062-115.223,96.838H1590.012z"/>
							</g>
							<g>
								<path fill="#E58DFF" d="M1605.024,999.096c20.253-36.868,54.215-65.187,94.976-78.041v-4.92
									c-43.383,13.262-79.42,43.513-100.319,82.961H1605.024z"/>
							</g>
							<g>
								<path fill="#E58DFF" d="M1620.413,999.096c18.186-29.586,46.262-52.47,79.587-64.017v-4.97
									c-35.954,12.037-66.11,36.835-85.07,68.987H1620.413z"/>
							</g>
							<g>
								<path fill="#E58DFF" d="M1636.329,999.096c15.674-22.367,37.809-39.892,63.671-49.845v-5.031
									c-28.503,10.554-52.74,29.968-69.362,54.876H1636.329z"/>
							</g>
							<g>
								<path fill="#E58DFF" d="M1653.042,999.096c12.534-15.261,28.603-27.514,46.958-35.468v-5.107
									c-21.011,8.715-39.233,22.825-52.964,40.575H1653.042z"/>
							</g>
							<g>
								<path fill="#E58DFF" d="M1671.01,999.096c8.45-8.386,18.223-15.441,28.99-20.794v-5.225
									c-13.465,6.361-25.516,15.239-35.548,26.02H1671.01z"/>
							</g>
							<g>
								<path fill="#E58DFF" d="M1691.4,999.096c2.762-2.034,5.629-3.935,8.6-5.676v-5.407c-5.768,3.177-11.195,6.898-16.223,11.083
									H1691.4z"/>
							</g>
						</g>
					</g>
					<g>
						<g>
							<g>
								<path fill="#1BC5C8" d="M1436.55,999.096c10.739-4.05,22.366-6.274,34.505-6.274s23.766,2.223,34.505,6.274h11.667
									c-13.89-7.016-29.577-10.975-46.172-10.975c-16.596,0-32.282,3.959-46.173,10.975H1436.55z"/>
							</g>
							<g>
								<path fill="#1BC5C8" d="M1408.053,999.096c17.93-12.346,39.635-19.586,63.002-19.586c23.367,0,45.072,7.24,63.002,19.586
									h7.963c-19.635-15.216-44.259-24.287-70.965-24.287c-26.706,0-51.33,9.071-70.964,24.287H1408.053z"/>
							</g>
							<g>
								<path fill="#1BC5C8" d="M1386.763,999.096c22.21-20.414,51.819-32.897,84.292-32.897c32.473,0,62.081,12.483,84.291,32.897
									h6.805c-23.4-23.226-55.6-37.598-91.096-37.598c-35.496,0-67.696,14.372-91.096,37.598H1386.763z"/>
							</g>
							<g>
								<path fill="#1BC5C8" d="M1368.11,999.096c25.29-28.335,62.067-46.208,102.944-46.208c40.878,0,77.655,17.873,102.944,46.208
									h6.219c-26.196-31.107-65.407-50.909-109.163-50.909c-43.756,0-82.967,19.803-109.163,50.909H1368.11z"/>
							</g>
							<g>
								<path fill="#1BC5C8" d="M1350.858,999.096c27.674-36.154,71.255-59.52,120.197-59.52c48.942,0,92.523,23.365,120.196,59.52
									h5.868c-28.397-38.897-74.325-64.221-126.064-64.221s-97.667,25.324-126.064,64.221H1350.858z"/>
							</g>
							<g>
								<path fill="#1BC5C8" d="M1334.468,999.096c29.595-43.901,79.776-72.831,136.587-72.831
									c56.812,0,106.992,28.93,136.587,72.831h5.628c-30.191-46.619-82.659-77.533-142.216-77.533
									c-59.557,0-112.024,30.913-142.215,77.533H1334.468z"/>
							</g>
							<g>
								<path fill="#1BC5C8" d="M1318.684,999.096c31.189-51.584,87.818-86.142,152.371-86.142
									c64.552,0,121.182,34.558,152.37,86.142h5.462c-31.69-54.285-90.569-90.844-157.832-90.844
									c-67.264,0-126.143,36.558-157.832,90.844H1318.684z"/>
							</g>
							<g>
								<path fill="#1BC5C8" d="M1303.328,999.096c32.536-59.221,95.519-99.453,167.727-99.453s135.191,40.232,167.727,99.453h5.339
									c-32.965-61.908-98.17-104.155-173.066-104.155c-74.896,0-140.1,42.247-173.065,104.155H1303.328z"/>
							</g>
							<g>
								<path fill="#1BC5C8" d="M1288.292,999.096c33.694-66.821,102.959-112.765,182.763-112.765
									c79.803,0,149.068,45.944,182.762,112.765h5.386c-10.048-20.554-23.534-39.526-40.187-56.179
									c-39.522-39.522-92.068-61.288-147.961-61.288c-55.893,0-108.44,21.766-147.962,61.288
									c-16.653,16.653-30.139,35.625-40.187,56.179H1288.292z"/>
							</g>
							<g>
								<path fill="#1BC5C8" d="M1273.504,999.096c34.701-74.389,110.197-126.076,197.551-126.076
									c87.353,0,162.85,51.686,197.551,126.076h5.318c-10.923-24.114-26.216-46.313-45.495-65.592
									c-42.036-42.036-97.926-65.186-157.373-65.186c-59.448,0-115.338,23.15-157.374,65.186
									c-19.279,19.279-34.572,41.478-45.495,65.592H1273.504z"/>
							</g>
							<g>
								<path fill="#1BC5C8" d="M1258.907,999.096c35.585-81.934,117.277-139.387,212.148-139.387
									c94.871,0,176.563,57.451,212.143,139.387h5.266c-11.688-27.682-28.735-53.116-50.623-75.003
									c-44.551-44.55-103.783-69.085-166.786-69.085c-63.004,0-122.236,24.535-166.787,69.085
									c-21.887,21.887-38.93,47.323-50.619,75.003H1258.907z"/>
							</g>
							<g>
								<path fill="#1BC5C8" d="M1244.47,999.096c36.368-89.456,124.223-152.698,226.585-152.698
									c102.36,0,190.206,63.243,226.574,152.698H1700v-6.879c-12.325-28.584-30.074-54.864-52.747-77.537
									c-47.064-47.064-109.639-72.983-176.198-72.983c-66.559,0-129.135,25.92-176.199,72.983
									c-24.481,24.481-43.224,53.165-55.591,84.416H1244.47z"/>
							</g>
						</g>
					</g>
				</g>
			</g>
			<g>
				<g>
					
						<text transform="matrix(1 0 0 1 976.6192 268.6619)" fill="#1BC5C8" stroke="#1BC5C8" stroke-width="2" stroke-linecap="round" stroke-linejoin="round" stroke-miterlimit="10" font-family="'Quicksand-Regular'" font-size="98.5686px" letter-spacing="15">ABSTRACT</text>
				</g>
				<g>
					
						<text transform="matrix(1 0 0 1 976.6192 325.2585)" fill="#FFCC24" stroke="#FFCC24" stroke-linecap="round" stroke-linejoin="round" stroke-miterlimit="10" font-family="'Quicksand-Regular'" font-size="42.3772px" letter-spacing="33">BACKGROUND</text>
				</g>
			</g>
		</g>
	</g>
</g>
<g id="Vexels">
	<g>
		<g>
			<path fill="#FFFFFF" d="M2527.897,335.484h-644.659c-10.94,0-19.81,8.87-19.81,19.81v268.082l-62.03,19.923l62.03,18.008v186.82
				c0,10.939,8.87,19.81,19.81,19.81h644.659c10.94,0,19.811-8.87,19.811-19.81V355.294
				C2547.708,344.354,2538.838,335.484,2527.897,335.484z"/>
			<rect x="1927.998" y="402.472" fill="none" width="583.032" height="407.034"/>
			<text transform="matrix(1 0 0 1 1927.998 419.5122)"><tspan x="0" y="0" fill="#333333" font-family="'MyriadPro-Regular'" font-size="24px">This design was made by vexels.com. Its under CC 3.0 </tspan><tspan x="0" y="28.8" fill="#333333" font-family="'MyriadPro-Regular'" font-size="24px">Attribution License. This means that for free use you must </tspan><tspan x="0" y="57.6" fill="#333333" font-family="'MyriadPro-Regular'" font-size="24px">give credit and cant do merchandise items. You can only </tspan><tspan x="0" y="86.4" fill="#333333" font-family="'MyriadPro-Regular'" font-size="24px">do commercial and merchandise items without credit if </tspan><tspan x="0" y="115.2" fill="#333333" font-family="'MyriadPro-Regular'" font-size="24px">you get a license. Learn more on </tspan><tspan x="327.785" y="115.2" fill="#C64B09" font-family="'MyriadPro-Regular'" font-size="24px">www.vexels.com/plans</tspan><tspan x="0" y="172.8" fill="#333333" font-family="'MyriadPro-Regular'" font-size="24px">You cant sublicense, redistribute or resell an image or </tspan><tspan x="0" y="201.6" fill="#333333" font-family="'MyriadPro-Regular'" font-size="24px">part of it. You can only use our contents for products </tspan><tspan x="0" y="230.4" fill="#333333" font-family="'MyriadPro-Regular'" font-size="24px">where the design is the main reason its being purchased </tspan><tspan x="0" y="259.2" fill="#333333" font-family="'MyriadPro-Regular'" font-size="24px">if you get a license. Learn more on </tspan><tspan x="0" y="288" fill="#C64B09" font-family="'MyriadPro-Regular'" font-size="24px">www.vexels.com/terms-and-conditions</tspan><tspan x="0" y="345.6" fill="#333333" font-family="'MyriadPro-Regular'" font-size="24px">Thanks!</tspan><tspan x="0" y="374.4" fill="#333333" font-family="'MyriadPro-Regular'" font-size="24px">Vexels Team</tspan></text>
		</g>
	</g>
	<g>
		<g>
			<g>
				<path fill="#1BC5C8" d="M1289.052,360.345l-1.024-2.216c-0.503-1.066-1.842-1.562-2.967-1.103
					c-1.218,0.417-1.762,1.675-1.259,2.703l1.151,2.494l9.1,19.744c0.086,0.078,0.168,0.229,0.207,0.305
					c0,0.037,0.048,0.037,0.048,0.037c0.041,0.076,0.125,0.152,0.209,0.231c0,0.075,0.039,0.075,0.039,0.111
					c0.123,0.078,0.209,0.116,0.292,0.192c0.041,0,0.041,0,0.041,0c0.127,0.076,0.295,0.19,0.379,0.227c0.041,0,0.041,0,0.041,0
					s0.043,0,0.043,0.041c0.082,0,0.25,0.037,0.335,0.072c0.036,0,0.082,0,0.082,0c0.125,0.039,0.293,0.039,0.422,0.039
					c0.123,0,0.25,0,0.417-0.039c0.038,0,0.079,0,0.079,0c0.126-0.034,0.208-0.072,0.337-0.072c0.043-0.041,0.043-0.041,0.082-0.041
					c0.127-0.037,0.254-0.151,0.336-0.192c0.082-0.035,0.082-0.035,0.082-0.035c0.084-0.077,0.166-0.114,0.249-0.192
					c0.045-0.036,0.045-0.036,0.086-0.111c0.043-0.078,0.166-0.155,0.207-0.231c0.041,0,0.041,0,0.041-0.037
					c0.087-0.077,0.132-0.227,0.173-0.305l0.39-0.838l-2.48-5.37L1289.052,360.345z M1377.81,360.187
					c0.71-0.954,0.546-2.248-0.5-2.897c-1.047-0.723-2.429-0.533-3.221,0.458l-4.77,5.948l2.84,3.474L1377.81,360.187z
					 M1307.358,357.025c-1.126-0.459-2.507,0.037-3.01,1.103l-6.062,13.095l2.488,5.376l7.841-16.872
					C1309.075,358.701,1308.533,357.442,1307.358,357.025z M1253.352,348.975c-0.985-0.985-2.293-1.525-3.683-1.525
					c-1.39,0-2.697,0.54-3.681,1.525l-16.856,16.86c-2.028,2.034-2.028,5.332,0,7.359l16.856,16.863
					c0.985,0.982,2.291,1.521,3.681,1.521c1.39,0,2.699-0.539,3.683-1.519l16.856-16.864c0.985-0.986,1.526-2.288,1.526-3.681
					c0-1.385-0.542-2.693-1.526-3.678L1253.352,348.975z M1267.591,371.028l-16.409,16.407c-0.811,0.811-2.216,0.811-3.02,0
					l-16.412-16.407c-0.833-0.834-0.833-2.191-0.004-3.026l16.416-16.41c0.013-0.013,0.027-0.027,0.043-0.036v13.599
					c-0.668,0.227-1.284,0.584-1.797,1.099c-0.873,0.873-1.35,2.027-1.35,3.26c0,1.233,0.477,2.396,1.35,3.261
					c0.87,0.877,2.03,1.354,3.259,1.354c1.235,0,2.393-0.475,3.267-1.354c1.796-1.794,1.796-4.723,0-6.526
					c-0.513-0.513-1.129-0.867-1.799-1.094v-13.599c0.014,0.009,0.032,0.023,0.048,0.036l16.409,16.41
					c0.406,0.403,0.622,0.942,0.622,1.511C1268.213,370.084,1267.996,370.617,1267.591,371.028z M1369.865,370.008l-2.808-3.503
					l-7.066-8.757c-0.717-0.99-2.178-1.181-3.185-0.458c-1.045,0.649-1.255,1.943-0.545,2.897l7.951,9.821l-7.951,9.904
					c-0.71,0.912-0.5,2.247,0.545,2.893c0.377,0.266,0.84,0.418,1.339,0.418c0.713,0,1.38-0.345,1.846-0.876l7.066-8.796
					l7.549,9.445c0.436,0.543,1.126,0.824,1.766,0.824c0.479,0,1.037-0.22,1.439-0.54c0.949-0.756,1.021-2.121,0.264-3.067
					L1369.865,370.008z M1332.863,356.613c-6.766,0-12.274,5.983-12.274,13.334c0,7.293,5.508,13.233,12.274,13.233
					c4.155,0,7.986-2.268,10.242-6.069c0.545-0.983,0.271-2.204-0.688-2.932c-0.309-0.199-0.673-0.305-1.045-0.305
					c-0.724,0-1.368,0.388-1.716,1.022c-1.417,2.5-4.021,4.048-6.792,4.048c-4.104,0-7.508-3.265-8.119-7.686h18.259
					c1.143,0,2.034-0.886,2.034-2.02l-0.002-0.268C1344.517,361.924,1339.283,356.613,1332.863,356.613z M1325.042,367.07
					c1.11-3.746,4.18-6.22,7.821-6.22c3.568,0,6.653,2.529,7.692,6.22H1325.042z M1437.469,378.876c-0.043,0-3.145,0-3.191,0
					c-1.182,0-2.558-0.683-2.558-2.593v-21.205c0-1.247-1.017-2.259-2.27-2.259c-1.203,0-2.261,1.057-2.261,2.259v21.205
					c0,4.192,2.784,6.901,7.088,6.901c0.056,0,3.165,0,3.219-0.004c1.117-0.08,1.997-1.015,1.997-2.151
					C1439.494,379.888,1438.599,378.943,1437.469,378.876z M1472.093,371.877c-0.962-1.412-2.47-2.402-4.185-3.16
					c-1.672-0.725-3.639-1.22-5.773-1.599h-0.086c-2.255-0.382-4.138-0.995-5.226-1.68c-0.545-0.338-0.925-0.681-1.134-0.988
					c-0.207-0.302-0.291-0.611-0.291-1.063c0-0.802,0.458-1.638,1.594-2.399c1.127-0.762,2.803-1.297,4.682-1.297
					c2.552,0,4.601,1.142,6.738,2.437c1.004,0.606,2.343,0.341,2.97-0.572c0.669-0.876,0.377-2.096-0.583-2.703
					c-2.135-1.256-5.11-3.05-9.125-3.05c-2.721,0-5.268,0.725-7.236,2.019c-1.926,1.301-3.35,3.276-3.35,5.564
					c0,1.14,0.334,2.207,0.966,3.118c0.917,1.335,2.3,2.289,3.884,2.971c1.594,0.686,3.438,1.143,5.399,1.486h0.089
					c2.465,0.418,4.519,1.064,5.732,1.789c0.624,0.383,1,0.761,1.255,1.144c0.251,0.382,0.375,0.72,0.375,1.216
					c0,0.953-0.541,1.906-1.801,2.744c-1.253,0.836-3.136,1.41-5.225,1.41c-2.973,0.036-6.152-1.564-7.992-2.932
					c-0.924-0.689-2.302-0.573-3.056,0.261c-0.712,0.84-0.587,2.098,0.334,2.783c2.388,1.717,6.192,3.774,10.713,3.808
					c2.969,0,5.689-0.799,7.74-2.166c2.091-1.376,3.596-3.467,3.596-5.907C1473.095,373.928,1472.721,372.789,1472.093,371.877z
					 M1402.732,356.613c-6.766,0-12.272,5.983-12.272,13.334c0,7.293,5.506,13.233,12.272,13.233c4.161,0,7.983-2.268,10.246-6.069
					c0.543-0.983,0.269-2.204-0.687-2.932c-0.313-0.199-0.676-0.305-1.049-0.305c-0.722,0-1.364,0.388-1.715,1.022
					c-1.416,2.5-4.02,4.048-6.795,4.048c-4.105,0-7.508-3.265-8.117-7.686h18.262c1.139,0,2.033-0.886,2.033-2.02v-0.268
					C1414.389,361.924,1409.155,356.613,1402.732,356.613z M1394.913,367.07c1.108-3.746,4.18-6.22,7.819-6.22
					c3.576,0,6.655,2.529,7.694,6.22H1394.913z"/>
			</g>
			<g>
				<path fill="#1BC5C8" d="M1103.792,371.282c0,0.793,0.007,1.509,0.02,2.155c0.016,0.64,0.087,1.274,0.21,1.896h-1.256
					l-0.464-1.652h-0.094c-0.309,0.542-0.759,0.992-1.35,1.349c-0.589,0.356-1.278,0.534-2.071,0.534
					c-1.55,0-2.703-0.486-3.456-1.467c-0.752-0.976-1.128-2.504-1.128-4.586c0-1.984,0.47-3.492,1.41-4.523
					c0.937-1.031,2.229-1.546,3.873-1.546c0.574,0,1.028,0.029,1.362,0.09c0.333,0.063,0.693,0.163,1.081,0.304v-4.84h1.864V371.282
					z M1099.09,373.939c0.79,0,1.419-0.208,1.886-0.619c0.462-0.411,0.781-1.035,0.952-1.873v-5.771
					c-0.28-0.216-0.595-0.373-0.952-0.466c-0.36-0.093-0.831-0.139-1.421-0.139c-1.071,0-1.908,0.354-2.513,1.061
					c-0.604,0.704-0.908,1.832-0.908,3.382c0,0.638,0.052,1.227,0.152,1.769c0.098,0.546,0.266,1.01,0.5,1.397
					c0.233,0.39,0.538,0.695,0.92,0.92C1098.086,373.824,1098.548,373.939,1099.09,373.939z"/>
				<path fill="#1BC5C8" d="M1115.87,374.355c-0.468,0.374-1.051,0.667-1.757,0.885c-0.707,0.217-1.454,0.325-2.246,0.325
					c-0.885,0-1.653-0.143-2.306-0.431c-0.649-0.286-1.186-0.697-1.605-1.233c-0.419-0.536-0.73-1.177-0.93-1.921
					c-0.204-0.744-0.306-1.579-0.306-2.511c0-1.986,0.445-3.501,1.329-4.541c0.883-1.037,2.147-1.56,3.793-1.56
					c0.527,0,1.053,0.061,1.582,0.178c0.529,0.114,1,0.336,1.419,0.663c0.419,0.325,0.761,0.788,1.026,1.383
					c0.263,0.599,0.395,1.385,0.395,2.361c0,0.513-0.047,1.081-0.141,1.699h-7.469c0,0.683,0.068,1.288,0.209,1.817
					c0.139,0.528,0.355,0.973,0.652,1.336c0.295,0.366,0.677,0.646,1.151,0.84c0.474,0.194,1.051,0.292,1.734,0.292
					c0.527,0,1.054-0.096,1.583-0.282c0.527-0.184,0.922-0.403,1.186-0.65L1115.87,374.355z M1111.867,365.001
					c-0.916,0-1.65,0.238-2.2,0.72c-0.552,0.481-0.881,1.303-0.988,2.468h5.77c0-1.181-0.225-2.007-0.675-2.48
					C1113.323,365.236,1112.689,365.001,1111.867,365.001z"/>
				<path fill="#1BC5C8" d="M1124.315,372.121c0-0.468-0.139-0.831-0.417-1.094c-0.282-0.264-0.627-0.484-1.038-0.663
					c-0.411-0.178-0.861-0.35-1.348-0.513c-0.49-0.161-0.94-0.372-1.351-0.627c-0.411-0.256-0.756-0.587-1.035-0.988
					c-0.278-0.405-0.419-0.949-0.419-1.632c0-1.116,0.317-1.932,0.954-2.453c0.635-0.52,1.521-0.783,2.654-0.783
					c0.837,0,1.54,0.077,2.105,0.225c0.566,0.147,1.058,0.321,1.478,0.525l-0.443,1.532c-0.358-0.168-0.788-0.32-1.291-0.45
					c-0.505-0.133-1.043-0.199-1.619-0.199c-0.683,0-1.183,0.115-1.499,0.348c-0.319,0.235-0.477,0.636-0.477,1.21
					c0,0.403,0.138,0.718,0.42,0.942c0.278,0.225,0.622,0.427,1.033,0.605c0.411,0.178,0.861,0.352,1.351,0.524
					c0.488,0.171,0.938,0.396,1.349,0.676c0.411,0.278,0.757,0.63,1.035,1.057c0.28,0.428,0.419,0.986,0.419,1.685
					c0,0.499-0.08,0.965-0.242,1.397c-0.164,0.436-0.416,0.808-0.758,1.117c-0.343,0.311-0.763,0.556-1.269,0.732
					c-0.505,0.177-1.096,0.268-1.779,0.268c-0.886,0-1.639-0.087-2.257-0.255c-0.622-0.172-1.141-0.372-1.56-0.604l0.558-1.583
					c0.358,0.202,0.822,0.388,1.398,0.56c0.573,0.17,1.155,0.257,1.744,0.257c0.667,0,1.219-0.134,1.652-0.398
					C1124.098,373.276,1124.315,372.804,1124.315,372.121z"/>
				<path fill="#1BC5C8" d="M1128.994,360.114c0-0.356,0.119-0.663,0.36-0.922c0.241-0.256,0.548-0.383,0.92-0.383
					c0.372,0,0.688,0.127,0.953,0.383c0.265,0.259,0.395,0.566,0.395,0.922c0,0.354-0.131,0.652-0.395,0.883
					c-0.264,0.235-0.581,0.35-0.953,0.35c-0.372,0-0.679-0.116-0.92-0.35C1129.112,360.766,1128.994,360.468,1128.994,360.114z
					 M1129.389,363.651h1.861v11.634h-1.861V363.651z"/>
				<path fill="#1BC5C8" d="M1144.142,375.821c0,1.505-0.401,2.615-1.199,3.329c-0.799,0.713-1.98,1.069-3.548,1.069
					c-0.931,0-1.68-0.057-2.246-0.174c-0.565-0.116-1.051-0.268-1.456-0.455l0.491-1.582c0.357,0.142,0.752,0.274,1.186,0.397
					c0.434,0.125,1,0.186,1.699,0.186c0.651,0,1.182-0.059,1.593-0.175c0.411-0.115,0.742-0.311,0.988-0.583
					c0.248-0.27,0.419-0.62,0.513-1.047c0.092-0.427,0.139-0.935,0.139-1.524v-1.115h-0.093c-0.311,0.45-0.706,0.796-1.185,1.035
					c-0.482,0.241-1.11,0.362-1.887,0.362c-1.566,0-2.718-0.489-3.455-1.469c-0.738-0.976-1.106-2.497-1.106-4.562
					c0-1.984,0.474-3.492,1.419-4.523c0.947-1.031,2.343-1.546,4.189-1.546c0.885,0,1.642,0.068,2.27,0.207
					c0.629,0.139,1.19,0.303,1.687,0.487V375.821z M1139.465,373.912c0.79,0,1.411-0.197,1.861-0.593
					c0.45-0.395,0.77-1.012,0.956-1.849v-5.958c-0.622-0.296-1.413-0.443-2.375-0.443c-1.055,0-1.884,0.359-2.49,1.071
					c-0.604,0.713-0.908,1.832-0.908,3.351c0,0.652,0.055,1.249,0.163,1.791c0.109,0.546,0.28,1.01,0.513,1.397
					c0.232,0.39,0.534,0.691,0.908,0.908C1138.464,373.805,1138.92,373.912,1139.465,373.912z"/>
				<path fill="#1BC5C8" d="M1155.195,375.285v-6.629c0-1.212-0.174-2.124-0.524-2.734c-0.348-0.615-0.989-0.92-1.919-0.92
					c-0.824,0-1.503,0.221-2.037,0.663c-0.534,0.44-0.912,0.997-1.129,1.664v7.956h-1.861v-11.634h1.303l0.349,1.419h0.094
					c0.374-0.497,0.872-0.906,1.501-1.223c0.628-0.316,1.378-0.478,2.245-0.478c0.638,0,1.196,0.077,1.675,0.225
					c0.482,0.147,0.881,0.405,1.2,0.777c0.317,0.372,0.558,0.873,0.72,1.501c0.164,0.629,0.245,1.425,0.245,2.386v7.027H1155.195z"
					/>
				<path fill="#1BC5C8" d="M1168.947,374.355c-0.464,0.374-1.049,0.667-1.755,0.885c-0.707,0.217-1.455,0.325-2.246,0.325
					c-0.884,0-1.653-0.143-2.304-0.431c-0.651-0.286-1.187-0.697-1.607-1.233c-0.418-0.536-0.73-1.177-0.929-1.921
					c-0.202-0.744-0.304-1.579-0.304-2.511c0-1.986,0.443-3.501,1.328-4.541c0.883-1.037,2.149-1.56,3.793-1.56
					c0.529,0,1.056,0.061,1.583,0.178c0.525,0.114,0.999,0.336,1.419,0.663c0.417,0.325,0.758,0.788,1.022,1.383
					c0.264,0.599,0.397,1.385,0.397,2.361c0,0.513-0.047,1.081-0.138,1.699h-7.471c0,0.683,0.071,1.288,0.209,1.817
					c0.139,0.528,0.357,0.973,0.652,1.336c0.295,0.366,0.677,0.646,1.151,0.84c0.474,0.194,1.051,0.292,1.734,0.292
					c0.529,0,1.056-0.096,1.584-0.282c0.526-0.184,0.921-0.403,1.186-0.65L1168.947,374.355z M1164.946,365.001
					c-0.915,0-1.648,0.238-2.199,0.72c-0.55,0.481-0.881,1.303-0.989,2.468h5.772c0-1.181-0.227-2.007-0.675-2.48
					C1166.402,365.236,1165.766,365.001,1164.946,365.001z"/>
				<path fill="#1BC5C8" d="M1181.213,371.282c0,0.793,0.006,1.509,0.022,2.155c0.018,0.64,0.086,1.274,0.209,1.896h-1.256
					l-0.464-1.652h-0.093c-0.311,0.542-0.761,0.992-1.349,1.349c-0.591,0.356-1.282,0.534-2.073,0.534
					c-1.55,0-2.702-0.486-3.456-1.467c-0.751-0.976-1.129-2.504-1.129-4.586c0-1.984,0.47-3.492,1.41-4.523
					c0.937-1.031,2.229-1.546,3.875-1.546c0.574,0,1.028,0.029,1.36,0.09c0.335,0.063,0.695,0.163,1.083,0.304v-4.84h1.864V371.282z
					 M1176.512,373.939c0.791,0,1.419-0.208,1.885-0.619c0.463-0.411,0.783-1.035,0.953-1.873v-5.771
					c-0.277-0.216-0.597-0.373-0.953-0.466c-0.356-0.093-0.83-0.139-1.421-0.139c-1.071,0-1.907,0.354-2.511,1.061
					c-0.605,0.704-0.909,1.832-0.909,3.382c0,0.638,0.05,1.227,0.151,1.769c0.1,0.546,0.268,1.01,0.499,1.397
					c0.234,0.39,0.54,0.695,0.922,0.92C1175.507,373.824,1175.968,373.939,1176.512,373.939z"/>
				<path fill="#1BC5C8" d="M1191.009,358.997h1.862v5.796h0.094c0.356-0.45,0.81-0.799,1.36-1.047
					c0.549-0.248,1.153-0.376,1.802-0.376c1.508,0,2.632,0.484,3.388,1.445c0.752,0.962,1.127,2.452,1.127,4.468
					c0,2.034-0.497,3.578-1.49,4.631c-0.992,1.056-2.39,1.582-4.188,1.582c-0.87,0-1.656-0.092-2.361-0.277
					c-0.706-0.186-1.239-0.388-1.596-0.605V358.997z M1195.803,365.001c-0.777,0-1.406,0.215-1.885,0.649
					c-0.482,0.435-0.83,1.049-1.047,1.838v5.864c0.293,0.172,0.654,0.302,1.071,0.388c0.419,0.084,0.853,0.127,1.303,0.127
					c1.054,0,1.897-0.375,2.525-1.119c0.627-0.744,0.94-1.907,0.94-3.488c0-0.604-0.053-1.172-0.161-1.701
					c-0.109-0.528-0.279-0.976-0.513-1.35c-0.233-0.373-0.531-0.668-0.894-0.881
					C1196.775,365.111,1196.329,365.001,1195.803,365.001z"/>
				<path fill="#1BC5C8" d="M1206.728,371.19l0.654,2.233h0.117l0.514-2.254l2.266-7.518h1.861l-3.444,10.448
					c-0.264,0.759-0.523,1.497-0.779,2.212c-0.257,0.713-0.541,1.349-0.849,1.908c-0.312,0.559-0.662,1.004-1.047,1.339
					c-0.39,0.332-0.838,0.499-1.351,0.499c-0.558,0-1.016-0.079-1.372-0.231l0.325-1.607c0.202,0.078,0.395,0.115,0.583,0.115
					c0.435,0,0.852-0.229,1.256-0.685c0.402-0.458,0.736-1.244,1-2.364l-4.678-11.634h2.14L1206.728,371.19z"/>
			</g>
		</g>
	</g>
</g>
</svg>
